<svg xmlns="http://www.w3.org/2000/svg" xmlns:xlink="http://www.w3.org/1999/xlink" viewBox="0 0 391.13 622.59"><defs><style>.cls-1{isolation:isolate;}.cls-2,.cls-3,.cls-34,.cls-35,.cls-36,.cls-37,.cls-39,.cls-4,.cls-41,.cls-43,.cls-44,.cls-45,.cls-46,.cls-47,.cls-48,.cls-49,.cls-5,.cls-50{fill-rule:evenodd;}.cls-2{fill:url(#_ÂÁ_Ï_ÌÌ_È_ËÂÌÚ_21);}.cls-10,.cls-13,.cls-16,.cls-18,.cls-20,.cls-22,.cls-23,.cls-24,.cls-3,.cls-36,.cls-45,.cls-5,.cls-7,.cls-8{mix-blend-mode:multiply;}.cls-3,.cls-36{opacity:0.74;}.cls-3{fill:url(#_ÂÁ_Ï_ÌÌ_È_ËÂÌÚ_202);}.cls-4{fill:url(#_ÂÁ_Ï_ÌÌ_È_ËÂÌÚ_58);}.cls-5{opacity:0.5;fill:url(#_ÂÁ_Ï_ÌÌ_È_ËÂÌÚ_202-2);}.cls-6{fill:url(#_ÂÁ_Ï_ÌÌ_È_ËÂÌÚ_1863);}.cls-10,.cls-7,.cls-8{fill:#85358b;}.cls-7{opacity:0.44;}.cls-8{opacity:0.34;}.cls-9{fill:url(#_ÂÁ_Ï_ÌÌ_È_ËÂÌÚ_1864);}.cls-10,.cls-18{opacity:0.25;}.cls-11{fill:url(#_ÂÁ_Ï_ÌÌ_È_ËÂÌÚ_1858);}.cls-12,.cls-14,.cls-26,.cls-30,.cls-32,.cls-33{mix-blend-mode:color-dodge;}.cls-12,.cls-14,.cls-32,.cls-33{opacity:0.46;}.cls-12{fill:url(#_ÂÁ_Ï_ÌÌ_È_ËÂÌÚ_1859);}.cls-13{opacity:0.42;fill:url(#_ÂÁ_Ï_ÌÌ_È_ËÂÌÚ_1861);}.cls-14{fill:url(#_ÂÁ_Ï_ÌÌ_È_ËÂÌÚ_1862);}.cls-15{fill:url(#_ÂÁ_Ï_ÌÌ_È_ËÂÌÚ_244);}.cls-16{fill:#c88b3b;opacity:0.38;}.cls-17{fill:url(#_ÂÁ_Ï_ÌÌ_È_ËÂÌÚ_229);}.cls-18{fill:url(#_ÂÁ_Ï_ÌÌ_È_ËÂÌÚ_1380);}.cls-19{fill:url(#_ÂÁ_Ï_ÌÌ_È_ËÂÌÚ_135);}.cls-20{opacity:0.63;fill:url(#_ÂÁ_Ï_ÌÌ_È_ËÂÌÚ_1694);}.cls-21{mix-blend-mode:screen;opacity:0.54;fill:url(#_ÂÁ_Ï_ÌÌ_È_ËÂÌÚ_335);}.cls-22{fill:#4ac0e7;}.cls-23{fill:url(#_ÂÁ_Ï_ÌÌ_È_ËÂÌÚ_1584);}.cls-24{fill:#41aacd;}.cls-25{fill:#772710;}.cls-26{opacity:0.36;}.cls-27{fill:url(#_ÂÁ_Ï_ÌÌ_È_ËÂÌÚ_1856);}.cls-28{fill:url(#_ÂÁ_Ï_ÌÌ_È_ËÂÌÚ_1856-2);}.cls-29{fill:url(#_ÂÁ_Ï_ÌÌ_È_ËÂÌÚ_1856-3);}.cls-30{opacity:0.68;}.cls-31{fill:#aa4d29;}.cls-32{fill:url(#_ÂÁ_Ï_ÌÌ_È_ËÂÌÚ_1862-2);}.cls-33{fill:url(#_ÂÁ_Ï_ÌÌ_È_ËÂÌÚ_1862-3);}.cls-34{fill:url(#_ÂÁ_Ï_ÌÌ_È_ËÂÌÚ_58-2);}.cls-35{fill:url(#_ÂÁ_Ï_ÌÌ_È_ËÂÌÚ_21-2);}.cls-36{fill:url(#_ÂÁ_Ï_ÌÌ_È_ËÂÌÚ_202-3);}.cls-37{fill:url(#_ÂÁ_Ï_ÌÌ_È_ËÂÌÚ_91);}.cls-38{fill:url(#_ÂÁ_Ï_ÌÌ_È_ËÂÌÚ_79);}.cls-39{fill:url(#_ÂÁ_Ï_ÌÌ_È_ËÂÌÚ_91-2);}.cls-40{fill:#fff;}.cls-41{fill:url(#_ÂÁ_Ï_ÌÌ_È_ËÂÌÚ_91-3);}.cls-42{fill:url(#_ÂÁ_Ï_ÌÌ_È_ËÂÌÚ_79-2);}.cls-43{fill:url(#_ÂÁ_Ï_ÌÌ_È_ËÂÌÚ_91-4);}.cls-44{fill:url(#_ÂÁ_Ï_ÌÌ_È_ËÂÌÚ_170);}.cls-45{fill:url(#_ÂÁ_Ï_ÌÌ_È_ËÂÌÚ_202-4);}.cls-46{fill:url(#_ÂÁ_Ï_ÌÌ_È_ËÂÌÚ_79-3);}.cls-47{fill:url(#_ÂÁ_Ï_ÌÌ_È_ËÂÌÚ_79-4);}.cls-48{fill:url(#_ÂÁ_Ï_ÌÌ_È_ËÂÌÚ_186);}.cls-49{fill:url(#_ÂÁ_Ï_ÌÌ_È_ËÂÌÚ_121);}.cls-50{fill:url(#_ÂÁ_Ï_ÌÌ_È_ËÂÌÚ_121-2);}</style><linearGradient id="_ÂÁ_Ï_ÌÌ_È_ËÂÌÚ_21" x1="299.3" y1="434.24" x2="299.3" y2="368.58" gradientUnits="userSpaceOnUse"><stop offset="0.01" stop-color="#e57a8b"/><stop offset="0.21" stop-color="#e98581"/><stop offset="0.69" stop-color="#f29a6f"/><stop offset="1" stop-color="#f5a268"/></linearGradient><linearGradient id="_ÂÁ_Ï_ÌÌ_È_ËÂÌÚ_202" x1="261.6" y1="430.39" x2="261.6" y2="368.58" gradientUnits="userSpaceOnUse"><stop offset="0" stop-color="#ca538d"/><stop offset="1" stop-color="#b3757c"/></linearGradient><linearGradient id="_ÂÁ_Ï_ÌÌ_È_ËÂÌÚ_58" x1="360.33" y1="403.77" x2="360.33" y2="335.73" gradientUnits="userSpaceOnUse"><stop offset="0" stop-color="#f5a268"/><stop offset="0.31" stop-color="#f29a6f"/><stop offset="0.79" stop-color="#e98581"/><stop offset="0.99" stop-color="#e57a8b"/></linearGradient><linearGradient id="_ÂÁ_Ï_ÌÌ_È_ËÂÌÚ_202-2" x1="362.29" y1="385.74" x2="362.29" y2="360.5" xlink:href="#_ÂÁ_Ï_ÌÌ_È_ËÂÌÚ_202"/><linearGradient id="_ÂÁ_Ï_ÌÌ_È_ËÂÌÚ_1863" x1="423.11" y1="21.86" x2="253.61" y2="319.79" gradientUnits="userSpaceOnUse"><stop offset="0" stop-color="#d84133"/><stop offset="0.55" stop-color="#ad2c36"/><stop offset="1" stop-color="#861939"/></linearGradient><linearGradient id="_ÂÁ_Ï_ÌÌ_È_ËÂÌÚ_1864" x1="378.91" y1="38.87" x2="264.99" y2="239.1" gradientUnits="userSpaceOnUse"><stop offset="0" stop-color="#fdc73e"/><stop offset="0.54" stop-color="#f6a240"/><stop offset="0.72" stop-color="#f39239"/><stop offset="1" stop-color="#ed702a"/></linearGradient><linearGradient id="_ÂÁ_Ï_ÌÌ_È_ËÂÌÚ_1858" x1="269.94" y1="114.76" x2="206.6" y2="178.1" gradientUnits="userSpaceOnUse"><stop offset="0" stop-color="#fbc36f"/><stop offset="1" stop-color="#e68738"/></linearGradient><linearGradient id="_ÂÁ_Ï_ÌÌ_È_ËÂÌÚ_1859" x1="272.72" y1="117.55" x2="209.38" y2="180.89" gradientUnits="userSpaceOnUse"><stop offset="0" stop-color="#fecc3e"/><stop offset="1" stop-color="#f18841"/></linearGradient><linearGradient id="_ÂÁ_Ï_ÌÌ_È_ËÂÌÚ_1861" x1="165.96" y1="209.58" x2="388.76" y2="13.53" gradientUnits="userSpaceOnUse"><stop offset="0" stop-color="#fff"/><stop offset="0.02" stop-color="#fcfafc"/><stop offset="0.21" stop-color="#d8bfda"/><stop offset="0.4" stop-color="#ba8ebe"/><stop offset="0.58" stop-color="#a367a8"/><stop offset="0.75" stop-color="#934c98"/><stop offset="0.89" stop-color="#893b8e"/><stop offset="1" stop-color="#85358b"/></linearGradient><linearGradient id="_ÂÁ_Ï_ÌÌ_È_ËÂÌÚ_1862" x1="278.81" y1="41.2" x2="166.86" y2="237.98" gradientUnits="userSpaceOnUse"><stop offset="0" stop-color="#fecc3e"/><stop offset="0.31" stop-color="#af8c2b"/><stop offset="1" stop-color="#010101"/></linearGradient><linearGradient id="_ÂÁ_Ï_ÌÌ_È_ËÂÌÚ_244" x1="167.94" y1="622.59" x2="167.94" y2="249.02" gradientUnits="userSpaceOnUse"><stop offset="0" stop-color="#ed702a"/><stop offset="0.28" stop-color="#f39239"/><stop offset="0.46" stop-color="#f6a240"/><stop offset="1" stop-color="#fdc73e"/></linearGradient><linearGradient id="_ÂÁ_Ï_ÌÌ_È_ËÂÌÚ_229" x1="173.32" y1="759.88" x2="173.32" y2="349.72" gradientUnits="userSpaceOnUse"><stop offset="0" stop-color="#f18841"/><stop offset="1" stop-color="#fecc3e"/></linearGradient><linearGradient id="_ÂÁ_Ï_ÌÌ_È_ËÂÌÚ_1380" x1="180.2" y1="622.53" x2="180.2" y2="429.86" gradientUnits="userSpaceOnUse"><stop offset="0" stop-color="#fff"/><stop offset="0.64" stop-color="#96519b"/><stop offset="0.74" stop-color="#85358b"/></linearGradient><linearGradient id="_ÂÁ_Ï_ÌÌ_È_ËÂÌÚ_135" x1="204.44" y1="483.94" x2="95.82" y2="48.5" gradientUnits="userSpaceOnUse"><stop offset="0" stop-color="#34b8be"/><stop offset="0.97" stop-color="#70bc7e"/></linearGradient><linearGradient id="_ÂÁ_Ï_ÌÌ_È_ËÂÌÚ_1694" x1="154.16" y1="434.41" x2="154.16" y2="210.11" gradientUnits="userSpaceOnUse"><stop offset="0.4" stop-color="#fff"/><stop offset="0.47" stop-color="#e8f7fc"/><stop offset="0.84" stop-color="#77d0ed"/><stop offset="1" stop-color="#4ac0e7"/></linearGradient><radialGradient id="_ÂÁ_Ï_ÌÌ_È_ËÂÌÚ_335" cx="272.7" cy="454.37" r="75.44" gradientTransform="translate(-6.52) scale(0.7 1)" xlink:href="#_ÂÁ_Ï_ÌÌ_È_ËÂÌÚ_1862"/><linearGradient id="_ÂÁ_Ï_ÌÌ_È_ËÂÌÚ_1584" x1="154.16" y1="435.16" x2="154.16" y2="180.94" gradientUnits="userSpaceOnUse"><stop offset="0.21" stop-color="#fff"/><stop offset="0.22" stop-color="#f7fcfe"/><stop offset="0.35" stop-color="#bae7f6"/><stop offset="0.46" stop-color="#8ad6ef"/><stop offset="0.56" stop-color="#67caeb"/><stop offset="0.64" stop-color="#52c3e8"/><stop offset="0.7" stop-color="#4ac0e7"/></linearGradient><linearGradient id="_ÂÁ_Ï_ÌÌ_È_ËÂÌÚ_1856" x1="53.68" y1="246.2" x2="53.68" y2="199.06" gradientUnits="userSpaceOnUse"><stop offset="0" stop-color="#010101"/><stop offset="0.04" stop-color="#080403"/><stop offset="0.71" stop-color="#7c381e"/><stop offset="1" stop-color="#aa4d29"/></linearGradient><linearGradient id="_ÂÁ_Ï_ÌÌ_È_ËÂÌÚ_1856-2" x1="153.66" y1="202.75" x2="153.66" y2="1.9" xlink:href="#_ÂÁ_Ï_ÌÌ_È_ËÂÌÚ_1856"/><linearGradient id="_ÂÁ_Ï_ÌÌ_È_ËÂÌÚ_1856-3" x1="69.85" y1="284.77" x2="69.85" y2="227.06" xlink:href="#_ÂÁ_Ï_ÌÌ_È_ËÂÌÚ_1856"/><linearGradient id="_ÂÁ_Ï_ÌÌ_È_ËÂÌÚ_1862-2" x1="427.18" y1="24.17" x2="297.84" y2="251.5" xlink:href="#_ÂÁ_Ï_ÌÌ_È_ËÂÌÚ_1862"/><linearGradient id="_ÂÁ_Ï_ÌÌ_È_ËÂÌÚ_1862-3" x1="377.06" y1="37.82" x2="297.73" y2="177.24" xlink:href="#_ÂÁ_Ï_ÌÌ_È_ËÂÌÚ_1862"/><linearGradient id="_ÂÁ_Ï_ÌÌ_È_ËÂÌÚ_58-2" x1="72.27" y1="519.29" x2="72.27" y2="368.7" xlink:href="#_ÂÁ_Ï_ÌÌ_È_ËÂÌÚ_58"/><linearGradient id="_ÂÁ_Ï_ÌÌ_È_ËÂÌÚ_21-2" x1="38.86" y1="564.78" x2="38.86" y2="513.15" xlink:href="#_ÂÁ_Ï_ÌÌ_È_ËÂÌÚ_21"/><linearGradient id="_ÂÁ_Ï_ÌÌ_È_ËÂÌÚ_202-3" x1="89.75" y1="438.56" x2="89.75" y2="368.7" xlink:href="#_ÂÁ_Ï_ÌÌ_È_ËÂÌÚ_202"/><radialGradient id="_ÂÁ_Ï_ÌÌ_È_ËÂÌÚ_91" cx="232.16" cy="245.56" r="22.81" gradientUnits="userSpaceOnUse"><stop offset="0.01" stop-color="#37190f"/><stop offset="0.46" stop-color="#341812"/><stop offset="0.81" stop-color="#2a131b"/><stop offset="1" stop-color="#210f23"/></radialGradient><radialGradient id="_ÂÁ_Ï_ÌÌ_È_ËÂÌÚ_79" cx="271.05" cy="246.34" r="62.74" gradientTransform="translate(-1.37 29.33) scale(0.86 0.89)" gradientUnits="userSpaceOnUse"><stop offset="0.01" stop-color="#fff"/><stop offset="0.24" stop-color="#fdfcfc"/><stop offset="0.44" stop-color="#f7f1f3"/><stop offset="0.63" stop-color="#ece0e5"/><stop offset="0.82" stop-color="#ddc7d0"/><stop offset="0.99" stop-color="#c9a7b6"/><stop offset="1" stop-color="#c8a5b4"/></radialGradient><radialGradient id="_ÂÁ_Ï_ÌÌ_È_ËÂÌÚ_91-2" cx="265.22" cy="273.04" r="20.05" gradientTransform="translate(-1.37 29.33) scale(0.86 0.89)" xlink:href="#_ÂÁ_Ï_ÌÌ_È_ËÂÌÚ_91"/><radialGradient id="_ÂÁ_Ï_ÌÌ_È_ËÂÌÚ_91-3" cx="113.11" cy="252.71" r="23.69" xlink:href="#_ÂÁ_Ï_ÌÌ_È_ËÂÌÚ_91"/><radialGradient id="_ÂÁ_Ï_ÌÌ_È_ËÂÌÚ_79-2" cx="136.34" cy="250.96" r="62.74" xlink:href="#_ÂÁ_Ï_ÌÌ_È_ËÂÌÚ_79"/><radialGradient id="_ÂÁ_Ï_ÌÌ_È_ËÂÌÚ_91-4" cx="129.56" cy="277.66" r="20.05" gradientTransform="translate(-1.37 29.33) scale(0.86 0.89)" xlink:href="#_ÂÁ_Ï_ÌÌ_È_ËÂÌÚ_91"/><linearGradient id="_ÂÁ_Ï_ÌÌ_È_ËÂÌÚ_170" x1="174.32" y1="329.77" x2="174.32" y2="291.53" gradientUnits="userSpaceOnUse"><stop offset="0.01" stop-color="#cf2f17"/><stop offset="0.36" stop-color="#cc2f19"/><stop offset="0.64" stop-color="#c2311f"/><stop offset="0.89" stop-color="#b23328"/><stop offset="1" stop-color="#a8342e"/></linearGradient><linearGradient id="_ÂÁ_Ï_ÌÌ_È_ËÂÌÚ_202-4" x1="145.01" y1="303.71" x2="203.63" y2="303.71" xlink:href="#_ÂÁ_Ï_ÌÌ_È_ËÂÌÚ_202"/><radialGradient id="_ÂÁ_Ï_ÌÌ_È_ËÂÌÚ_79-3" cx="174.57" cy="297.73" r="14.08" gradientTransform="matrix(1, 0, 0, 1, 0, 0)" xlink:href="#_ÂÁ_Ï_ÌÌ_È_ËÂÌÚ_79"/><radialGradient id="_ÂÁ_Ï_ÌÌ_È_ËÂÌÚ_79-4" cx="175.13" cy="327.19" r="11.48" gradientTransform="matrix(1, 0, 0, 1, 0, 0)" xlink:href="#_ÂÁ_Ï_ÌÌ_È_ËÂÌÚ_79"/><radialGradient id="_ÂÁ_Ï_ÌÌ_È_ËÂÌÚ_186" cx="153.11" cy="313.47" r="25.58" gradientUnits="userSpaceOnUse"><stop offset="0.01" stop-color="#96462d"/><stop offset="0.36" stop-color="#93432e"/><stop offset="0.64" stop-color="#893a30"/><stop offset="0.88" stop-color="#792c34"/><stop offset="1" stop-color="#6e2237"/></radialGradient><linearGradient id="_ÂÁ_Ï_ÌÌ_È_ËÂÌÚ_121" x1="84.37" y1="209.89" x2="119.9" y2="209.89" gradientUnits="userSpaceOnUse"><stop offset="0.01" stop-color="#3f130f"/><stop offset="0.4" stop-color="#3c1311"/><stop offset="0.71" stop-color="#321118"/><stop offset="0.99" stop-color="#220f23"/><stop offset="1" stop-color="#210f23"/></linearGradient><linearGradient id="_ÂÁ_Ï_ÌÌ_È_ËÂÌÚ_121-2" x1="-145.59" y1="206.93" x2="-114.58" y2="206.93" gradientTransform="matrix(-1, 0, 0, 1, 95.62, 0)" xlink:href="#_ÂÁ_Ï_ÌÌ_È_ËÂÌÚ_121"/></defs><g class="cls-1"><g id="Capa_2" data-name="Capa 2"><g id="Capa_1-2" data-name="Capa 1"><path class="cls-2" d="M352.59,403.77s-39.87,39.76-70.95,28.44c-1.51-.56-3-1.15-4.36-1.82-28.95-13.12-31.35-42.68-31.35-42.68V368.58s11,28.93,28.61,41.77v0c4.72,3.43,9.93,5.7,15.52,6,26.53,1.3,53.52-26.35,53.52-26.35S353.74,389.31,352.59,403.77Z"/><path class="cls-3" d="M277.28,430.39c-28.95-13.12-31.35-42.68-31.35-42.68V368.58s11,28.93,28.61,41.77v0A102.6,102.6,0,0,0,277.28,430.39Z"/><path class="cls-4" d="M337.56,385.74c-2.09-6,.42-14.89-7.85-24.3,0,0-1.75-6.27,5.41-8.72,0,0,7.41,5.33,10.95,13.4,0,0,5.25-14.6,11.14-30,0,0,5-1.57,8.84,1.71l-4,18L374.33,338s8.76-1.87,11.61,7.68l-6.56,17.09,6.56-8s6.41.43,5,6.84L381.09,377s-10.45,23.28-28.5,26.8C352.59,403.77,339.48,391.29,337.56,385.74Z"/><path class="cls-5" d="M346.07,366.12s8,6.92,10.25,16.23c0,0,7.9,3.28,13.76,3.39s8.42-9.81,8.42-9.81-5-14-25.82-15.43Z"/><path class="cls-6" d="M329.08,149.36s-61.11,87.56-90,162.52l1.89,41.7s68-71,119.75-181.22C360.76,172.36,354.67,154.37,329.08,149.36Z"/><path class="cls-7" d="M295.66,205.16s.15-1.74.42-4.55q-3.46,5.69-7.06,11.79c0,.54-.07,1-.12,1.57-3.8,49.79,14.66,51,20.61,50.08,2.11-3.24,4.24-6.57,6.38-10C292.78,264.1,295.66,205.16,295.66,205.16Z"/><path class="cls-7" d="M326.77,152.72c-1.22,1.78-2.88,4.25-4.93,7.33-.36,54.87,18.21,45.1,25.74,38.89,1.64-3.15,3.26-6.32,4.88-9.54C330.11,206.61,327.13,167.05,326.77,152.72Z"/><path class="cls-7" d="M308.41,180.72c-1.33,2.1-2.72,4.31-4.14,6.58.68,57.64,16.49,52.79,22.77,48.56q3.52-6,7-12.15C314.47,237.47,309.58,197.62,308.41,180.72Z"/><path class="cls-7" d="M280.1,246.59S282,233.85,284,220.92c-3.05,5.27-6.12,10.72-9.19,16.28C274,244.05,273.2,251,272.51,258c-4.13,41.65,9.31,40.66,14.47,38.85q4.41-6.09,9.06-12.75C269,298.11,280.1,246.59,280.1,246.59Z"/><path class="cls-8" d="M280.49,273.33c-3-28.23,48.59-124,48.59-124s-61.11,87.56-90,162.52l1.3,28.72c4,0,8.06,0,12.11.06,21.5-25.08,69-85.22,107.74-167.28C330.13,221,282.54,292.57,280.49,273.33Z"/><path class="cls-9" d="M311.86,108.78s-37.54,72.15-64.67,161.63,11.06,28.46,11.06,28.46,51.78-102,74.33-177.74C332.58,121.13,330.75,108.17,311.86,108.78Z"/><path class="cls-7" d="M261.8,226.29c-4.23,11.82-8.4,24.18-12.39,36.94,4.48,14.56,9.94,29,10.5,29a36.38,36.38,0,0,0,3.81-4.45c3.94-8,9.71-20,16.38-34.43C265.2,263.51,262.34,242.59,261.8,226.29Z"/><path class="cls-7" d="M318,163.89q2.56-6.84,5-13.61c-22.83,23.3-14.88-34-14.88-34-2.09,4.24-5,10.22-8.42,17.64C298.64,185,317.76,164.15,318,163.89Z"/><path class="cls-7" d="M288.59,158.59C284,169.12,279.06,181,274,193.94c-3.84,40.07,21.75,24.69,21.75,24.69,2.85-6.54,5.71-13.26,8.55-20.1C271.56,236.29,288.5,159,288.59,158.59Z"/><path class="cls-10" d="M290.91,205.11c-15.6,2.41,20.95-96.33,20.95-96.33s-37.54,72.15-64.67,161.63c-.83,2.74-1.59,5.33-2.31,7.8l12.26,22.37c.69-1.05,1.11-1.71,1.11-1.71s27.13-53.46,50.66-111.7l11.52-29.82C308.74,187.71,293.66,204.68,290.91,205.11Z"/><path class="cls-11" d="M283.44,163.52a7,7,0,0,1,.5-7.79,17.26,17.26,0,0,0,3.57-12.25,15.29,15.29,0,0,0-8.78-11.94,6.65,6.65,0,0,1-3.8-5.54c-.4-4.57-2.08-8.94-5.8-11.92a13.87,13.87,0,0,0-8.28-3,7.14,7.14,0,0,1-6.4-4.3A15.34,15.34,0,0,0,247,98.86a13.94,13.94,0,0,0-10.09-.69,6.86,6.86,0,0,1-6.35-1.45,13.55,13.55,0,0,0-7.84-3.06,15,15,0,0,0-7.81,1.84c-2.58,1.36-5.8,1.35-7.9-.67a11.34,11.34,0,0,0-7.64-3.22,11.49,11.49,0,0,0-8.57,3.78,6.85,6.85,0,0,1-6.74,2.25,14.87,14.87,0,0,0-11,1.24,14.29,14.29,0,0,0-5.71,5.85,7.54,7.54,0,0,1-7.33,4.06,18.82,18.82,0,0,0-12.38,4,18.44,18.44,0,0,0-6.83,11,7.14,7.14,0,0,1-4.47,5.37,13.11,13.11,0,0,0-8.3,12.32,6.8,6.8,0,0,1-3.66,5.91c-1.2.66-2.39,1.32-3.57,2-2,1.1-3.89,2.22-5.82,3.34-1.54.9-3.58,1.73-4.69,3.21-2,2.63.2,5.12,1.85,7.19a115.44,115.44,0,0,0,8.13,9.13,147,147,0,0,0,38.21,27.37c15.12,7.68,31.28,12.93,47.29,18.4,8.23,2.81,16.44,5.68,24.46,9,7.85,3.29,15.27,8,23.39,10.56,7.17,2.28,16.32,2.17,21.81-3.72a13.76,13.76,0,0,0,3.38-11.95,6.9,6.9,0,0,1,2-6.31,17.19,17.19,0,0,0,5.25-9.19,13.8,13.8,0,0,0-1.5-9.26,7.39,7.39,0,0,1-.7-6.47C287.34,182.07,288.22,171.25,283.44,163.52Z"/><path class="cls-12" d="M283.44,163.52a7,7,0,0,1,.5-7.79,17.26,17.26,0,0,0,3.57-12.25,15.29,15.29,0,0,0-8.78-11.94,6.65,6.65,0,0,1-3.8-5.54c-.4-4.57-2.08-8.94-5.8-11.92a13.87,13.87,0,0,0-8.28-3,7.14,7.14,0,0,1-6.4-4.3A15.34,15.34,0,0,0,247,98.86a13.94,13.94,0,0,0-10.09-.69,6.86,6.86,0,0,1-6.35-1.45,13.55,13.55,0,0,0-7.84-3.06,15,15,0,0,0-7.81,1.84c-2.58,1.36-5.8,1.35-7.9-.67a11.34,11.34,0,0,0-7.64-3.22,11.49,11.49,0,0,0-8.57,3.78,6.85,6.85,0,0,1-6.74,2.25,14.91,14.91,0,0,0-11,1.24,13.82,13.82,0,0,0-4.14,3.68,13,13,0,0,1,2-1.49,14.91,14.91,0,0,1,11-1.24,6.85,6.85,0,0,0,6.74-2.25,11.43,11.43,0,0,1,8.57-3.77A11.24,11.24,0,0,1,204.83,97c2.1,2,5.32,2,7.9.66a14.94,14.94,0,0,1,7.8-1.84,13.5,13.5,0,0,1,7.84,3.06,6.89,6.89,0,0,0,6.36,1.45,13.94,13.94,0,0,1,10.09.69,15.38,15.38,0,0,1,7.44,7.89,7.14,7.14,0,0,0,6.4,4.3,13.87,13.87,0,0,1,8.28,3c3.72,3,5.4,7.35,5.8,11.92a6.63,6.63,0,0,0,3.8,5.54,15.28,15.28,0,0,1,8.77,11.94,17.2,17.2,0,0,1-3.56,12.25,7,7,0,0,0-.5,7.79c4.78,7.74,3.9,18.56.37,27.18a7.42,7.42,0,0,0,.7,6.48,13.76,13.76,0,0,1,1.5,9.25,17.1,17.1,0,0,1-5.26,9.19,6.9,6.9,0,0,0-2,6.31,13.67,13.67,0,0,1-2.85,11.21,14.13,14.13,0,0,0,1.66-1.45,13.76,13.76,0,0,0,3.38-11.95,6.9,6.9,0,0,1,2-6.31,17.19,17.19,0,0,0,5.25-9.19,13.8,13.8,0,0,0-1.5-9.26,7.39,7.39,0,0,1-.7-6.47C287.34,182.07,288.22,171.25,283.44,163.52Z"/><path class="cls-13" d="M266.75,163.87a5.6,5.6,0,0,1,.4-6.26,13.84,13.84,0,0,0,2.86-9.84,12.26,12.26,0,0,0-7.05-9.59,5.36,5.36,0,0,1-3-4.46,13.33,13.33,0,0,0-4.66-9.57,11.15,11.15,0,0,0-6.65-2.43,5.78,5.78,0,0,1-5.15-3.46,12.3,12.3,0,0,0-6-6.34,11.21,11.21,0,0,0-8.11-.55,5.51,5.51,0,0,1-5.1-1.17,10.81,10.81,0,0,0-6.3-2.45,12.06,12.06,0,0,0-6.27,1.48,5.48,5.48,0,0,1-6.35-.54,9.09,9.09,0,0,0-6.14-2.59,9.2,9.2,0,0,0-6.88,3,5.52,5.52,0,0,1-5.42,1.81,11.9,11.9,0,0,0-8.87,1,11.47,11.47,0,0,0-4.59,4.7,6.08,6.08,0,0,1-5.89,3.27,15.09,15.09,0,0,0-9.94,3.17,14.82,14.82,0,0,0-5.49,8.86,5.74,5.74,0,0,1-3.59,4.31,10.55,10.55,0,0,0-6.67,9.9,5.46,5.46,0,0,1-2.94,4.75c-1,.52-1.92,1-2.87,1.59-1.56.89-3.12,1.78-4.67,2.69-1.24.72-2.88,1.39-3.77,2.57-1.58,2.12.16,4.12,1.49,5.79a94.28,94.28,0,0,0,6.52,7.33,118.36,118.36,0,0,0,30.7,22c12.15,6.18,25.13,10.4,38,14.79,6.61,2.25,13.21,4.56,19.66,7.26s12.26,6.41,18.79,8.49c5.75,1.82,13.11,1.74,17.52-3a11,11,0,0,0,2.71-9.6,5.57,5.57,0,0,1,1.59-5.07,13.78,13.78,0,0,0,4.22-7.38,11.1,11.1,0,0,0-1.2-7.43,5.92,5.92,0,0,1-.56-5.21C269.88,178.77,270.58,170.08,266.75,163.87Z"/><path class="cls-10" d="M167.31,104.73a7.54,7.54,0,0,1-7.33,4.06,18.82,18.82,0,0,0-12.38,4,18.44,18.44,0,0,0-6.83,11,7.14,7.14,0,0,1-4.47,5.37,13.11,13.11,0,0,0-8.3,12.32,6.8,6.8,0,0,1-3.66,5.91c-1.2.66-2.39,1.32-3.57,2-2,1.1-3.89,2.22-5.82,3.34-1.54.9-3.58,1.73-4.69,3.21-2,2.63.2,5.12,1.85,7.19a115.44,115.44,0,0,0,8.13,9.13,147,147,0,0,0,38.21,27.37c15.12,7.68,31.28,12.93,47.29,18.4,8.23,2.81,16.44,5.68,24.46,9,7.85,3.29,15.27,8,23.39,10.56,7.17,2.28,16.32,2.17,21.81-3.72a13.76,13.76,0,0,0,3.38-11.95,6.9,6.9,0,0,1,2-6.31c.21-.21.39-.44.6-.66-93.75-7.7-107.49-89-109.45-115.23A14.37,14.37,0,0,0,167.31,104.73Z"/><path class="cls-14" d="M271.14,163.78a6,6,0,0,1,.42-6.66,14.73,14.73,0,0,0,3.05-10.48,13.07,13.07,0,0,0-7.51-10.21,5.68,5.68,0,0,1-3.24-4.74,14.21,14.21,0,0,0-5-10.19,12,12,0,0,0-7.08-2.59,6.13,6.13,0,0,1-5.48-3.67,13,13,0,0,0-6.36-6.75,11.86,11.86,0,0,0-8.62-.59,5.86,5.86,0,0,1-5.44-1.24,11.54,11.54,0,0,0-6.7-2.62,12.83,12.83,0,0,0-6.67,1.58,5.83,5.83,0,0,1-6.76-.57,9.62,9.62,0,0,0-6.53-2.75,9.73,9.73,0,0,0-7.33,3.23,5.84,5.84,0,0,1-5.76,1.92,12.77,12.77,0,0,0-9.45,1,12.25,12.25,0,0,0-4.88,5,6.48,6.48,0,0,1-6.27,3.48A16.07,16.07,0,0,0,155,120.37a15.75,15.75,0,0,0-5.85,9.42,6.1,6.1,0,0,1-3.82,4.59,11.23,11.23,0,0,0-7.1,10.54,5.8,5.8,0,0,1-3.13,5.05c-1,.56-2,1.12-3.05,1.7q-2.49,1.41-5,2.86c-1.32.77-3.07,1.47-4,2.74-1.68,2.25.17,4.38,1.58,6.15a99.1,99.1,0,0,0,7,7.81,125.86,125.86,0,0,0,32.67,23.4c12.93,6.56,26.74,11.06,40.44,15.73,7,2.4,14.05,4.86,20.91,7.73s13.06,6.83,20,9c6.13,1.95,14,1.86,18.65-3.18a11.75,11.75,0,0,0,2.89-10.22,5.88,5.88,0,0,1,1.69-5.39,14.67,14.67,0,0,0,4.49-7.87,11.78,11.78,0,0,0-1.28-7.91,6.3,6.3,0,0,1-.6-5.54C274.47,179.64,275.22,170.39,271.14,163.78ZM263,138.18a12.19,12.19,0,0,1,6.71,8.26L257.16,152l-5.43-12.33,8.8-3.87A5,5,0,0,0,263,138.18Zm3.75,49.21v0Zm-10.32,2.68-6.22-13.71,11.58-5.1,5.77,13.11c-.16.44-.3.9-.47,1.33.05-.12.08-.25.13-.37Zm-31.11,17.61,12.33-5.43,6.55,14.9-8,3.54c-2.18-1-4.35-2.09-6.51-3.16Zm6.65-27.2-5-11.32,13.36-5.88,5.11,11.26Zm15-2.68,6.23,13.72-13.68,6-6.07-13.79Zm-24.66-10.48-12.33,5.43-5.43-12.33L216.8,155Zm-2.15-13.77,13.18-5.8L238.83,160l-13.32,5.86ZM203,157.15,197,143.36l12.33-5.43,6.07,13.79Zm-3.27,1.44-11.32,5-6.07-13.78,11.32-5Zm1.44,3.27,5.43,12.33-11.32,5-5.43-12.33Zm6.87,15.61,5,11.32-11.32,5-5-11.32Zm3.27-1.44,12.33-5.43,5,11.32-12.32,5.43Zm25.19-29.72,11.93-5.25,5.42,12.33-11.78,5.19Zm-1.47-3.26-6.23-13.72L241,124,247,137.78Zm-3.28,1.44-13.14,5.79-6.07-13.79,13-5.72Zm-20.66-11.27-5-11.32L219,116.25l5.11,11.26Zm-3.27,1.44-12.33,5.43-5-11.32,12.33-5.43Zm-15.6,6.87-11.32,5-5-11.32,11.32-5ZM177.65,148,163.87,154l-5-11.32,13.79-6.07Zm1.44,3.28L185.16,165l-13.78,6.07-6.07-13.78Zm7.51,17.06L192,180.62l-10.54,4.64,1.44,3.28,10.54-4.65,5,11.32-2.83,1.25,1.44,3.28,2.83-1.25,4,9c-6.51-2.22-13-4.42-19.47-6.83l-11.57-26.29Zm27.89,23.77,6.07,13.79-7.78,3.42.69,1.57c-1.66-.6-3.33-1.17-5-1.75l-5.31-12Zm3.28-1.44,12.33-5.43L236.17,199l-12.33,5.43Zm23.11,10.19,13.72-6,6.72,14.82-13.88,6.11Zm7.81-27.71-5.11-11.26,11.75-5.18,5,11.32Zm-.09-51.38a11.15,11.15,0,0,1,6.65,2.43,13.33,13.33,0,0,1,4.66,9.57,15.13,15.13,0,0,0-.25-1.5l-9.37,4.12-6.07-13.78,2.65-1.17A5.83,5.83,0,0,0,248.6,121.72Zm-5.15-3.46a5.5,5.5,0,0,0,.36.57l-1,.45L240.47,114A13.14,13.14,0,0,1,243.45,118.26Zm-3-4.24a14.58,14.58,0,0,0-1.35-1.12A12.16,12.16,0,0,1,240.47,114Zm-3-2.1a11,11,0,0,0-2.18-.74l4.2,9.54-12.15,5.35-5.11-11.26,8.48-3.73A11.14,11.14,0,0,1,237.48,111.92Zm-13.21-1.72a27.26,27.26,0,0,0-3.51,1.35l-1.65-3.65A10.9,10.9,0,0,1,224.27,110.2Zm-18.92-1.51a5.48,5.48,0,0,0,6.35.54,13.2,13.2,0,0,1,3.53-1.22l2.26,5-12.79,5.63-5.51-12.51A9,9,0,0,1,205.35,108.69Zm-6.44-2.56a9,9,0,0,0-3.31.71A9,9,0,0,1,198.91,106.13Zm-12,4.82a5.52,5.52,0,0,0,5.42-1.81,9.61,9.61,0,0,1,3.27-2.3l5.83,13.22-12.33,5.43-6.57-14.91A12.43,12.43,0,0,1,186.91,111Zm-4.38-.37a10.17,10.17,0,0,0-1.32.24A12.21,12.21,0,0,1,182.53,110.58Zm-1.83.34a14.25,14.25,0,0,0-1.66.59A12.13,12.13,0,0,1,180.7,110.92Zm-23.08,12.16a15.09,15.09,0,0,1,9.94-3.17,6.08,6.08,0,0,0,5.89-3.27,11.47,11.47,0,0,1,4.59-4.7,9.47,9.47,0,0,1,1-.42l6.79,15.41-11.32,5-5.33-12.12a6.61,6.61,0,0,1-1.61.11,11.9,11.9,0,0,0-2.23.06l5.9,13.39-13.79,6.07L153,129.23a13.65,13.65,0,0,0-.82,2.71,5.17,5.17,0,0,1-.38,1.17,5.72,5.72,0,0,0,.38-1.17A14.82,14.82,0,0,1,157.62,123.08Zm-9.08,13.17a5.77,5.77,0,0,0,2.65-2.14l3,6.76-12.31,5.42A10.65,10.65,0,0,1,148.54,136.25Zm-7.11,11.85c0,.1-.08.19-.13.29C141.35,148.29,141.39,148.2,141.43,148.1Zm-5.8,22.77a94.28,94.28,0,0,1-6.52-7.33c-1.33-1.67-3.07-3.67-1.49-5.79.89-1.18,2.53-1.85,3.77-2.57,1.55-.91,3.11-1.8,4.67-2.69.95-.54,1.91-1.07,2.87-1.59a5.87,5.87,0,0,0,1.31-1l.38.86,15-6.6,5,11.31-7.28,3.21,1.44,3.27,7.28-3.2,17.62,40c-4.51-1.8-9-3.7-13.32-5.91A118.36,118.36,0,0,1,135.63,170.87ZM216,211.78l6-2.66,2.69,6.11c-.24-.1-.47-.23-.71-.33C221.33,213.79,218.65,212.78,216,211.78Zm26.81,11.61a56.11,56.11,0,0,1-6.65-2.7c1.5.7,3,1.32,4.56,1.9l4.93-2.17,1.73,3.94A24.87,24.87,0,0,1,242.77,223.39Zm4.57,1a21.39,21.39,0,0,0,3.92,0A21.39,21.39,0,0,1,247.34,224.36Zm3.93,0L248.88,219l13.92-6.13.36.79a11.08,11.08,0,0,1-2.87,6.75A13.53,13.53,0,0,1,251.27,224.4Zm11.89-10.76a10.88,10.88,0,0,0-.16-2.85A10.88,10.88,0,0,1,263.16,213.64Zm-.14-4.87a2.74,2.74,0,0,1,.05-.28A2.74,2.74,0,0,0,263,208.77Zm5.79-10.43a13.78,13.78,0,0,1-4.22,7.38,5.88,5.88,0,0,0-.7.88l-6-13.27,9.09-4a7.42,7.42,0,0,0,.65,1.58A11.1,11.1,0,0,1,268.81,198.34Zm-1.29-14a31.78,31.78,0,0,0,1.46-5.58A31.78,31.78,0,0,1,267.52,184.37Zm1.46-5.58-4-9,3.56-1.57A24.55,24.55,0,0,1,269,178.79Zm-1.83-21.18a5.6,5.6,0,0,0-.4,6.26,17,17,0,0,1,1.84,4.37,16.74,16.74,0,0,0-1.31-3.32l-3.7,1.62-5-11.32,11.43-5a11.53,11.53,0,0,0,0-2.42A13.84,13.84,0,0,1,267.15,157.61Z"/><path class="cls-15" d="M79.58,341.32s68,178.08,89.25,273.28a10.17,10.17,0,0,0,19.06,2.29C210.74,570.09,254,464,256.26,328,259.31,142.81,79.58,341.32,79.58,341.32Z"/><path class="cls-16" d="M109,381.48a33.85,33.85,0,0,1,7.49,5.33c3,3.06,3.09,13,3.09,13l1.48,7.91H111s5.3,1.95,7.11,3.77,2.5,14.16,2.5,14.16l1.3-1.67,2-2.27s.12-7.93,2.4-8.24,12.78,1.8,15.08,2.59,1.69,15.49,1.69,15.49h3.57s1-13.05,3.57-14,15.3,0,17.92,1.22,1.12,17,1.12,17l3.89-6.76s2.36-9.17,5.25-10.24,19.14-2,21.93-1.37.3,18.82.3,18.82l4.61-7.13s3.07-11.38,6.7-13.52,13.79-6,15.51-4,0,16.91,0,16.91l4.83-10.82s1.12-8.61,3.39-11,9.14-5.82,9.14-5.82l-12.79,3.53,3.28-13.85s.6-10.75,4.64-14.48a75.77,75.77,0,0,1,9.26-7l-14.14,6.59-27.31,9.21,1.24,14.9s2-12.65,4.6-13.05,14.55-4.67,16.26-4.67,1,16.75,1,16.75l0,6.56-25.29,7.4s5-29.18-.15-27.89-28,4.2-28,4.2l-.9,16.85s2.36-10.61,5.51-12.59,18.51-3.36,20.73-3.2,2.37,12.51,2.37,12.51l-.6,10.12-31.16,1.79L176,389.11l-28.38-2.35.54,15.92s1.95-10.23,3.93-11.29,18.13.76,19.95,1.52.55,14.81.55,14.81l-.7,6.87-26.22-1.74.65-26.09-23.93-4.06-.46,15,1.18,2.07s1.57-11,3.24-11.93,14.08,1.64,16.57,2.74,1.42,15.54,1.42,15.54l.29,5.79L123,408.44l-2.94-10.05.45-15.38Z"/><path class="cls-16" d="M168.62,468.72s3-12.75,6.71-13.52,17-1.37,19.1,0,.89,16.12.89,16.12l4.24-3.91s1.61-12.05,7.6-14.49,13.46-4,15.14-1.74,1.37,13.92,1.37,13.92l3.41-8.17s1.77-8.12,3.9-11.47,9.53-8,9.53-8L224,444.51l-23.61,4.2-32.73,2.47-45.71-11.51,4.81,11.51s-.39-5.42,1.29-5.88,11.42,3.35,12.64,4.88,2.25,12.36,2.25,12.36l3.4,2.56s.59-11,3.33-12.48,9.68,1.13,12.38,3.23,3.21,10.78,3.21,10.78Z"/><path class="cls-16" d="M134.3,470.45s5.43,3.52,7.15,5.75S144.62,488,144.62,488l2.6.87s.44-11.85,2.73-12,10.55.84,11.52,3.09S162.74,496,162.74,496h3.58s2.3-14,5-14.75,17.64-.83,19.82.76,0,18.89,0,18.89l3.43-3.2s4.27-16.07,6.1-17.78,15.69-3.55,17.21-3.09.81,13.38.81,13.38l4.67-19.76-30.17,4.25S156,477.63,135,470.45Z"/><path class="cls-16" d="M149.59,517.51s-.4-10.37,1.65-10.52,7.7,1.83,8.61,3.5,1.37,16.61,1.37,16.61h3.47s2-14.93,4.6-15.69,13.56.91,15.23,3,.49,16.88.49,16.88l3.87-1.29s5.06-14.82,7.74-17.41,14.47-4,15.35-2.59,0,13.89,0,13.89l2.86-7,2.14-13.2s-39.78,12-70.38-2.18Z"/><path class="cls-16" d="M153.14,542.72s-.14-6.65.77-7.48,4.09,1.15,4.94,2.06,1.82,11.32,1.82,11.32h3.57s1-8.27,2.58-8.88,11.29,1.08,13.28,3,.1,14.59.1,14.59l3.48-1.27s5.72-14.93,8.46-15.85,13.9-4.11,15-2.89,0,16.91,0,16.91L212,530.58s-29.12,15.4-60.73-2.11Z"/><path class="cls-16" d="M164.52,571.18s.39-5.85,3.42-6a12,12,0,0,1,7.6,3c1.06,1.11.3,11.31.3,11.31h3.75s3.72-9.75,6.46-11.12S199.3,562.74,201,564s0,11.42,0,11.42l6.19-19s-24.84,14.13-45.14,1Z"/><path class="cls-17" d="M255.9,364.21a1.79,1.79,0,1,0-2.23-2.79,105.85,105.85,0,0,1-16.56,10.74c1.45-16.18,2-25.88,2-26.23a1.78,1.78,0,0,0-1.68-1.89,1.74,1.74,0,0,0-1.89,1.68c0,.37-.65,10.87-2.24,28.33a120.76,120.76,0,0,1-22.46,8.09c1-10.06,1.69-19.52,2.08-28.08a1.8,1.8,0,0,0-1.71-1.87,1.87,1.87,0,0,0-1.87,1.71c-.4,8.84-1.16,18.67-2.18,29.12a155.73,155.73,0,0,1-27.63,3.57c2.38-14,4.09-22.38,4.15-22.7a1.79,1.79,0,0,0-3.5-.73c-.07.33-1.85,9.06-4.3,23.57a205.78,205.78,0,0,1-26.4-1.16c1.76-19,3.58-30.94,3.64-31.31a1.79,1.79,0,0,0-3.54-.56c0,.37-1.89,12.33-3.65,31.45-8.28-1-16-2.38-22.83-3.86.5-23.39,2.48-38.65,2.52-39a1.79,1.79,0,0,0-1.54-2,1.77,1.77,0,0,0-2,1.54c0,.32-2,15.43-2.53,38.65a221.8,221.8,0,0,1-27.07-7.94,1.79,1.79,0,0,0-1.32,3.32,220.63,220.63,0,0,0,28.33,8.26c-.11,6.77-.09,14.15.14,22-10.1-2.3-16.38-4.32-16.61-4.4a1.78,1.78,0,0,0-2.26,1.13,1.8,1.8,0,0,0,1.13,2.27c.25.08,7,2.27,17.85,4.69.31,8.64.88,17.78,1.78,27.27-4.2-1.66-6.64-2.83-6.77-2.9a1.79,1.79,0,0,0-1.59,3.21c.15.07,3.32,1.61,8.75,3.67.74,7.13,1.69,14.42,2.86,21.81a1.82,1.82,0,0,0-2.5.71,1.8,1.8,0,0,0,.75,2.42c.06,0,.9.46,2.45,1.13q1.55,9.09,3.59,18.27a1.79,1.79,0,0,0,1.74,1.4,1.75,1.75,0,0,0,.4,0,1.79,1.79,0,0,0,1.35-2.14q-1.78-8-3.17-15.9A125.39,125.39,0,0,0,143,473c.24,8.35.65,16.87,1.27,25.47a80.15,80.15,0,0,1-8.92-4.07,1.76,1.76,0,0,0-2.44.66,1.78,1.78,0,0,0,.66,2.44,87.62,87.62,0,0,0,11,4.9c.56,7.06,1.28,14.16,2.15,21.25-1.31-1-2.1-1.68-2.28-1.84a1.79,1.79,0,0,0-2.42,2.64,47.38,47.38,0,0,0,5.28,3.85c.9,6.66,2,13.3,3.18,19.88a2.26,2.26,0,0,0-.26.16,1.78,1.78,0,0,0-.14,2.52s.44.47,1.13,1.13c.79,4,1.63,8,2.55,12a1.79,1.79,0,0,0,1.74,1.38,1.4,1.4,0,0,0,.41,0,1.8,1.8,0,0,0,1.34-2.15c-.59-2.5-1.13-5-1.66-7.55a51.52,51.52,0,0,0,5.12,3.29c.06,6,.19,12,.43,18l-.29-.31a1.79,1.79,0,0,0-2.63,2.44,31.48,31.48,0,0,0,3.13,2.67c.2,4.19.44,8.36.74,12.48a1.78,1.78,0,0,0,1.78,1.66,1.81,1.81,0,0,0,1.79-1.92c-.24-3.24-.44-6.5-.62-9.78a35,35,0,0,0,9.29,3.66c-3.54,17.94-5.9,29.18-6,29.62a1.79,1.79,0,0,0,1.38,2.12,1.61,1.61,0,0,0,.37,0,1.79,1.79,0,0,0,1.75-1.42c.09-.44,2.46-11.72,6-29.72a31.25,31.25,0,0,0,3.82.31,35.9,35.9,0,0,0,16.48-4.27q-2,7.56-4.08,15.07a1.79,1.79,0,0,0,1.24,2.21,2,2,0,0,0,.48.07,1.79,1.79,0,0,0,1.72-1.31c1.74-6.15,3.39-12.35,5-18.56,1.27-.83,2.56-1.72,3.86-2.74a1.79,1.79,0,1,0-2.19-2.82c-.1.08-.2.13-.3.2q2.46-9.78,4.71-19.6a74.52,74.52,0,0,0,8.47-6,1.79,1.79,0,1,0-2.26-2.78c-1.72,1.4-3.41,2.63-5.09,3.77q2.35-10.49,4.49-20.9a98.35,98.35,0,0,0,11.52-6.52,1.8,1.8,0,0,0,.51-2.48,1.78,1.78,0,0,0-2.48-.52,96.55,96.55,0,0,1-8.67,5.1q2.41-12,4.53-23.76A94.12,94.12,0,0,0,234,495.67a1.79,1.79,0,0,0-1.88-3,91.6,91.6,0,0,1-11.74,6.12q2.49-14.06,4.57-27.47c5.18-1.43,10.49-3.13,15.92-5.18a1.78,1.78,0,1,0-1.26-3.34c-4.79,1.8-9.46,3.31-14,4.62q1.93-12.6,3.54-24.38a110.6,110.6,0,0,0,18.52-9.91,1.79,1.79,0,1,0-2-3,107.51,107.51,0,0,1-16,8.78c1.56-11.68,2.89-22.59,4-32.59a100.71,100.71,0,0,0,19.27-10.37,1.79,1.79,0,0,0-2-2.94,95.57,95.57,0,0,1-16.77,9.29c1.07-9.67,1.94-18.37,2.63-25.88A108.87,108.87,0,0,0,255.9,364.21Zm-49.06,22.55q-1.18,11.58-2.75,24a177.63,177.63,0,0,1-28.65,2.07c1.24-8.47,2.44-16.11,3.54-22.67A161.24,161.24,0,0,0,206.84,386.76ZM179.45,561.25a40.24,40.24,0,0,1-15.19-4.36c0-7,0-13.94.17-20.89a65,65,0,0,0,18.26,2.64l1,0C182.22,546.56,180.8,554.13,179.45,561.25Zm-14.93-28.7c.23-8.22.59-16.39,1-24.46a107.68,107.68,0,0,0,18.59,1.67c1.55,0,3.13-.06,4.72-.14-1.54,8.8-3.07,17.37-4.57,25.59A60.15,60.15,0,0,1,164.52,532.55Zm1.25-28c.57-9.38,1.28-18.58,2.07-27.52,3.89.3,8,.48,12.29.48,4.55,0,9.33-.21,14.3-.65-1.61,9.86-3.26,19.65-4.92,29.19A102.82,102.82,0,0,1,165.77,504.52Zm2.4-31.09c.69-7.4,1.43-14.61,2.22-21.57,3.53.26,7.13.44,10.83.44a134.17,134.17,0,0,0,17.24-1.12c-1.11,7.33-2.26,14.68-3.44,22A155.59,155.59,0,0,1,168.17,473.43Zm-21.84-25.12a169.42,169.42,0,0,0,20.49,3.28c-.78,6.94-1.53,14.13-2.21,21.53a145.51,145.51,0,0,1-18.11-3C146.32,462.7,146.27,455.39,146.33,448.31Zm0-3.63c.15-10.63.52-20.74,1-30.09,7.48.91,15.55,1.55,23.91,1.74-1.38,9.66-2.79,20.33-4.1,31.71A164.93,164.93,0,0,1,146.38,444.68Zm24.4,3.65c1.33-11.48,2.75-22.22,4.14-31.94l1.36,0a181.91,181.91,0,0,0,27.35-2c-1.39,10.78-2.94,21.89-4.62,33.12A134.91,134.91,0,0,1,170.78,448.33Zm.91-58c1.21,0,2.43,0,3.64,0-1.08,6.54-2.28,14.14-3.5,22.51A241.61,241.61,0,0,1,147.61,411c.47-8,1-15.32,1.6-21.92A216.53,216.53,0,0,0,171.69,390.34Zm-48.6-5.43c6.8,1.46,14.4,2.79,22.57,3.78-.58,6.59-1.13,13.93-1.6,21.88-7.77-1.06-14.82-2.35-20.79-3.63C123,399.08,123,391.7,123.09,384.91Zm.3,25.7c5.94,1.25,12.86,2.49,20.47,3.52-.51,9.23-.88,19.21-1,29.7a175.19,175.19,0,0,1-17.55-5.33C124.31,428.79,123.73,419.44,123.39,410.61Zm5.31,54c-1.24-7.51-2.22-14.92-3-22.17,4.66,1.64,10.43,3.44,17.08,5.06-.07,7.05,0,14.34.14,21.76A114.67,114.67,0,0,1,128.7,464.61Zm17.89,9.21a150.61,150.61,0,0,0,17.69,2.84c-.78,8.83-1.49,17.91-2.05,27.16a115.08,115.08,0,0,1-14.29-4C147.28,491,146.84,482.34,146.59,473.82Zm1.67,29.87A121.84,121.84,0,0,0,162,507.41c-.45,7.89-.81,15.88-1,23.92a59.61,59.61,0,0,1-10.33-5.06C149.66,518.74,148.88,511.2,148.26,503.69Zm6.25,46.49q-1.87-9.72-3.27-19.6a66.69,66.69,0,0,0,9.64,4.27q-.25,10-.22,20A44,44,0,0,1,154.51,550.18Zm10.34,29.71q-.43-9.55-.55-19.21a44.86,44.86,0,0,0,14.51,4c-1.37,7.19-2.66,13.78-3.83,19.78A30.23,30.23,0,0,1,164.85,579.89Zm34.53-.22c-8,4.89-15,6-20.87,5.34q1.8-9.16,3.91-20.2h.32a47.62,47.62,0,0,0,21.61-5.5Q202,569.51,199.38,579.67Zm6.05-24.95c-8.2,4.72-15.72,6.53-22.36,6.63q2.06-10.8,4.28-22.88a72.6,72.6,0,0,0,22.82-5.61Q207.92,543.74,205.43,554.72ZM211,528.67A70.9,70.9,0,0,1,188,535c1.51-8.24,3-16.81,4.58-25.62a92.8,92.8,0,0,0,23.12-4.94Q213.51,516.41,211,528.67Zm5.4-28.33a89.52,89.52,0,0,1-23.23,5.41c1.66-9.59,3.32-19.41,4.93-29.32a171.24,171.24,0,0,0,23-4.19Q219,486,216.42,500.34Zm5.32-31.9a168.39,168.39,0,0,1-23,4.36q1.78-11.08,3.46-22.19a116.62,116.62,0,0,0,23.08-6.1Q223.64,456.08,221.74,468.44Zm4-27.95a112.38,112.38,0,0,1-23.08,6.45c1.67-11.24,3.22-22.36,4.6-33.13a131.13,131.13,0,0,0,22.57-6.09C228.73,417.79,227.38,428.78,225.79,440.49Zm4.53-36.68a124.29,124.29,0,0,1-22.54,6.31q1.56-12.53,2.74-24.2A124.92,124.92,0,0,0,233,378.19C232.25,385.7,231.39,394.28,230.32,403.81Z"/><path class="cls-10" d="M109,359.4s86.73,96.45,146.73-13.57c.4-7.71.45-9.89.58-17.81,3.05-185.21-176.68,3.46-176.68,3.46s-2.93-8.2,4,10.5C90.07,353.72,103.41,365,109,359.4Z"/><path class="cls-18" d="M192.56,509.36c-25.33,7.87-57.13-37.21-80.54-79.16.46,1.32.91,2.58,1.38,3.92a1.79,1.79,0,0,0-.2,3.29c.06,0,.63.3,1.61.74,2.79,8,5.64,16.2,8.51,24.6a1.76,1.76,0,0,0-1,.85,1.8,1.8,0,0,0,.75,2.42s.62.31,1.64.77l1.62,4.78c.84,4.6,1.74,9.22,2.78,13.85a1.79,1.79,0,0,0,1.74,1.4,1.75,1.75,0,0,0,.4,0c1,2.42,1.82,4.93,2.65,7.44a1.7,1.7,0,0,0-1,.8,1.78,1.78,0,0,0,.66,2.44c.05,0,.64.36,1.69.88,2.53,7.72,5,15.46,7.47,23.16a1.68,1.68,0,0,0-.82.38,1.79,1.79,0,0,0,.11,2.53c.05,0,.84.71,2.15,1.69,2,6.26,3.9,12.5,5.77,18.66.2,1.12.33,2.26.54,3.38a2.26,2.26,0,0,0-.26.16,1.78,1.78,0,0,0-.14,2.52s.44.47,1.13,1.13c.79,4,1.63,8,2.55,12a1.79,1.79,0,0,0,1.74,1.38,1.4,1.4,0,0,0,.41,0c1.15,3.67,2.18,7.32,3.18,10.92a1.6,1.6,0,0,0-.87,2.82s.83.83,2.16,1.91c.39,1.44.8,2.9,1.18,4.32.16,3,.31,6,.53,8.92a1.78,1.78,0,0,0,1.78,1.66,1.35,1.35,0,0,0,.44-.09c1.67,6.58,3.19,12.89,4.53,18.88-.28,1.73-.48,2.67-.5,2.79a1.79,1.79,0,0,0,1.38,2.12,1.61,1.61,0,0,0,.37,0,1.79,1.79,0,0,0,1.15-.44,10.1,10.1,0,0,0,16.66-2.22c2.22-4.54,4.63-9.65,7.17-15.28a1.08,1.08,0,0,0,.24.12,2,2,0,0,0,.48.07,1.79,1.79,0,0,0,1.72-1.31c1.08-3.81,2.07-7.65,3.09-11.49,1.12-2.62,2.25-5.34,3.4-8.13.78-.54,1.56-1.06,2.36-1.68a1.78,1.78,0,0,0,.32-2.5,1.74,1.74,0,0,0-.77-.55q4.4-10.92,8.9-23.44c.75-.56,1.48-1.07,2.24-1.68a1.8,1.8,0,0,0,.26-2.52,1.71,1.71,0,0,0-.81-.53q3.73-10.63,7.4-22.28c.61-.38,1.2-.7,1.81-1.1a1.8,1.8,0,0,0,.51-2.48,1.71,1.71,0,0,0-1-.71q3.67-12,7.16-24.85c.53-.31,1.05-.56,1.58-.88a1.79,1.79,0,0,0,.58-2.46,1.74,1.74,0,0,0-1.08-.79q3.28-12.56,6.29-25.94l1.08-.38a1.78,1.78,0,0,0,1-2.3,1.75,1.75,0,0,0-1.31-1.09q3-13.95,5.62-28.73c.46-.3.93-.58,1.4-.89a1.8,1.8,0,0,0,.5-2.48,1.83,1.83,0,0,0-1.19-.75C238.91,458.17,222.32,500.11,192.56,509.36Z"/><path class="cls-19" d="M47.29,268.93S41,221.84,76.61,148.54C83.17,135,101.4,90.75,104.4,84.47c8.67-18.13,24.83-86.72,49.28-81.21,7.92,1.79,21.32,18,33.11,42.19,15.78,32.32,30,75.68,36.66,87.51,10.25,18.14,17.28,51.56,23.07,59.2,34.11,45.08,23.15,94.43,23.15,94.43s13.6,15.44,3.25,37.57-25.19,18.89-25.19,18.89,2,12.8-11.57,13.2c0,0-.2,5.48-10.56,8.73a20.76,20.76,0,0,1-17.87-2.43s-33.31,30.87-103.37-15c0,0-2.26,8-16.25,5.28-13.81-2.64-15.84-18.89-15.84-18.89A20,20,0,0,1,54,335.54c-10.56-4.06-4.26-11.17.41-9.75,0,0-18.28-12-21.94-30.67S36.12,268.11,47.29,268.93Z"/><path class="cls-20" d="M47.29,268.93c-11.17-.82-18.48,7.51-14.83,26.19S54.4,325.79,54.4,325.79c-4.67-1.42-11,5.69-.41,9.75a20,20,0,0,0,18.28-1.63s2,16.25,15.84,18.89c14,2.67,16.25-5.28,16.25-5.28,70.06,45.9,103.37,15,103.37,15A20.76,20.76,0,0,0,225.6,365c10.36-3.25,10.56-8.73,10.56-8.73,13.6-.4,11.57-13.2,11.57-13.2s14.83,3.25,25.19-18.89-3.25-37.57-3.25-37.57,8.81-39.76-14.06-80.51c6.77,24.51,6.57,52.43-15.19,74.77-50.36,51.73-125.1,3.15-125.1,3.15-74.84-12.47-52.25-92.22-52.07-92.84C43.13,226.74,47.29,268.93,47.29,268.93Z"/><ellipse class="cls-21" cx="184.59" cy="454.37" rx="52.87" ry="75.43"/><path class="cls-22" d="M70.94,220.62S60.18,144.56,106.23,98.44c0,0-35.67,59-34.91,94.78,0,0,8.63-28.3,16.61-43.53,7.27-13.87,13.12-22.25,24.79-33.12,0,0,10.64-10.27-5.31-6.7,0,0,1.86-3.42,12.41-1.15,1.61.35,2.09,3.13.76,4.39-5.49,5.16-16.49,16.68-28.52,35.79C74.83,176.27,69.65,207.82,70.94,220.62Z"/><path class="cls-22" d="M79.58,212.27s-14.42,24.5,1.42,54.9C81,267.17,70.44,243.74,79.58,212.27Z"/><path class="cls-23" d="M47.29,268.93c-11.17-.82-18.48,7.51-14.83,26.19S54.4,325.79,54.4,325.79c-4.67-1.42-11,5.69-.41,9.75a20,20,0,0,0,18.28-1.63s2,16.25,15.84,18.89c14,2.67,16.25-5.28,16.25-5.28,70.06,45.9,103.37,15,103.37,15A20.76,20.76,0,0,0,225.6,365c10.36-3.25,10.56-8.73,10.56-8.73,13.6-.4,11.57-13.2,11.57-13.2s14.83,3.25,25.19-18.89-3.25-37.57-3.25-37.57,5-22.42-2.24-50.84c7.43,40.57-2.94,54.19-2.94,54.19,8.22,20.72-23.46,58.19-25,36.56s-21.39,13.78-21.39,13.78,23.22-33.28,16.21-7.37S207.22,354,207.22,354a104.39,104.39,0,0,0,7.31-10.73c-31.38,46-94.13-13.09-94.13-13.09C41,332.77,52,287.36,52,287.36,70.29,326.8,104,322.55,104,322.55c-73.87-17.19-48.74-70-48.74-70,6.38,18,24.37,23.09,24.37,23.09-24.72-12.74-28.22-53.81-11.3-92.48C42.45,220.05,47.29,268.93,47.29,268.93Z"/><path class="cls-24" d="M152.49,117.68c5.57-16.35,16.53-20.31,27.07,22.39s12.56,23.84,12.85,11.91-.31-19.49-.65-36.12S208.13,121,214.53,141C227.4,181,240,191.66,238,175.89c-.75-6-49.47-137.58-62.35-152.69-11.83-13.89-28.17-37.15-52.2,8.12s-29.16,85.79-40,106.33c-9.65,18.33-23.65,77.27-8.67,54,2.58-4,9.07-19.32,19.32-48.09,8.42-23.64,16.23-18.2,13.8-9.07-1.08,4.05-3.74,23.09,1.76,79.67,3.46,35.54,8.83,4.35,8-27.72s1.82-57.72,11.36-63.59,3.86,95.38,16.64,89.84S137.9,160.56,152.49,117.68Z"/><path class="cls-25" d="M152.49,111.81C158.06,95.46,169,91.5,179.56,134.2s12.56,23.84,12.85,11.91-.31-19.49-.65-36.12,16.37,5.15,22.77,25.1C227.4,175.15,240,185.79,238,170c-.75-6-46.65-131.64-59.82-148.82-11.11-14.48-30.48-41.64-52.63,4.58-13.6,28.39-17.3,36.22-23.8,56-5.8,17.66-15.08,41.84-18.29,50-7.59,19.28-23.65,77.27-8.67,54,2.58-4,9.07-19.32,19.32-48.09,8.42-23.64,16.23-18.2,13.8-9.07-1.08,4.05-3.74,23.09,1.76,79.67,3.46,35.54,8.83,4.35,8-27.72s4.65-62.69,9.38-65.36c9.76-5.49,5.84,97.15,18.62,91.61S137.9,154.69,152.49,111.81Z"/><g class="cls-26"><path class="cls-27" d="M64.65,199.06a10.11,10.11,0,0,1-9.44,2.44S46,220.78,42.71,236.61c0,4.35.73,7.7,2.75,8.89C53.69,250.36,52.47,229.41,64.65,199.06Z"/></g><g class="cls-26"><path class="cls-28" d="M95.21,129s7.61-16.41,15-8.13c3.55,4-2.66,78.35,2.66,81.9,1.26.84,3.26-75.39,8.58-85.15,2-3.72,18-16.85,17,15.42-1.72,51.1,1.36,76.55,7.54,67s-4.84-24.67-1.33-78c2.27-34.5,27.4-34.79,32.11-13.43,4.9,22.2,7.11,39,11.25,37.47,4.34-1.57-1.77-18,0-34.29,2.19-20,11-14.67,15.38-6.21,14.78,28.38,33.05,78.06,31,64.16-5.91-29-47.6-131-58.7-146.43C165,8.29,147.26-23.6,121.69,40c-6.51,16.21-25.78,62.92-30.1,74.59C67.64,179.24,64.16,205.75,95.21,129Z"/></g><g class="cls-26"><path class="cls-29" d="M68.31,241.2c-4,15.54-8.53,43.87,0,43.57s6.4-18.59,7.69-41.61S72.71,224,68.31,241.2Z"/></g><g class="cls-30"><path class="cls-31" d="M126.84,240.82s2.85,17.4,13.06,11.56C139.9,252.38,128.85,264.65,126.84,240.82Z"/></g><g class="cls-30"><path class="cls-31" d="M65.35,283.14s6.91,6.23,9.12-7.42C74.47,275.72,74.11,292,65.35,283.14Z"/></g><path class="cls-32" d="M340.64,153c-5.9,16.72-19.52,50.16-48.13,99.56l7.19,6.33a643,643,0,0,0,58.68-91.11A39.85,39.85,0,0,0,340.64,153Z"/><path class="cls-33" d="M302.62,189.94s17.61-35.85,28.82-72.07a15.44,15.44,0,0,0-7.93-7.21c-2.72,13.21-10.4,43.58-29.17,80.5Z"/><path class="cls-34" d="M106.79,385.94c-12.74,15.15-22.24,34-29.27,52.62C62.7,477.82,58.87,516,58.87,516a20.63,20.63,0,0,1-21.69.48,457.78,457.78,0,0,1,35-96.36C88,387.85,102,368.7,102,368.7,109.8,373.13,106.79,385.94,106.79,385.94Z"/><path class="cls-35" d="M59.21,513.15s-1.78,14.1,18.51,23.75c0,0,0,10.24-10.87,7.89a56.5,56.5,0,0,0-14.09-7.28s-6.28,19.54-19.65,27.27c0,0-5.47.32-8.37-6.45,0,0,4.83-7.4,8.37-14.33,0,0-8.37,10.47-16.42,14,0,0-6.77,1.56-9.67-4.37l3.87-5.93L7,549.32s-7.27-1.07-7-10a56.71,56.71,0,0,0,37.17-22.84S52.44,519.08,59.21,513.15Z"/><path class="cls-36" d="M106.79,385.94c-12.74,15.15-22.24,34-29.27,52.62-.69-9.29-3.07-15-5.38-18.48C88,387.85,102,368.7,102,368.7,109.8,373.13,106.79,385.94,106.79,385.94Z"/><path class="cls-37" d="M204.58,252.54s6.78-20.75,26-23.44c22-3.07,29.54,21.64,29.16,33.19C259.73,262.29,232,245,204.58,252.54Z"/><ellipse class="cls-38" cx="230.57" cy="268.26" rx="29.16" ry="34.68"/><path class="cls-39" d="M241.52,271.33c0,10.46-7.13,18.95-15.93,18.95s-15.94-8.49-15.94-18.95,7.14-18.95,15.94-18.95S241.52,260.86,241.52,271.33Z"/><circle class="cls-40" cx="240.75" cy="277.13" r="4.65"/><path class="cls-41" d="M86.14,272.35s-3-29.56,14.8-37.26c15.47-6.71,33.72,4.21,39.32,19.31Z"/><ellipse class="cls-42" cx="115.3" cy="272.35" rx="29.16" ry="34.68"/><path class="cls-43" d="M125.43,275.42c0,10.47-7.13,18.95-15.93,18.95s-15.94-8.48-15.94-18.95,7.14-18.95,15.94-18.95S125.43,265,125.43,275.42Z"/><circle class="cls-40" cx="123.05" cy="283.42" r="4.65"/><path class="cls-31" d="M113.81,196.14l-.3,14.34s0,5.32-.44,5.76a.65.65,0,0,1-.89.1s1.43-.05,1-10.44S113.81,196.14,113.81,196.14Z"/><path class="cls-44" d="M197.48,315.88c-5,7.48-13.12,13.89-24.79,13.89s-21-9.78-25.17-19.12l0,0C144,302.78,144,295.22,148.91,294c6.15-1.48,14.53,2.61,28.4,2.59s22.19-9.42,25.62-2.59C204.75,297.65,203.1,307.44,197.48,315.88Z"/><path class="cls-45" d="M197.48,315.88c-20-13.75-50-5.23-50-5.23l0,0C144,302.78,144,295.22,148.91,294c6.15-1.48,14.53,2.61,28.4,2.59s22.19-9.42,25.62-2.59C204.75,297.65,203.1,307.44,197.48,315.88Z"/><path class="cls-46" d="M155.28,294s14.2,10.6,28.15,8.4a26.38,26.38,0,0,0,10.44-9.55s-6.28,3.7-16.56,3.81S155.28,294,155.28,294Z"/><path class="cls-47" d="M159.38,325.32s20.36,2.43,31.51-2.07c0,0-11.76,9.39-20.17,7.67S159.38,325.32,159.38,325.32Z"/><path class="cls-48" d="M149,313.49s8.3,21,26.17,21.21,25.27-24.05,25.27-24.05-9,18.68-25.83,19.35S149,313.49,149,313.49Z"/><path class="cls-49" d="M84.37,219.16S96.68,200.24,119.9,199v10.07a57.51,57.51,0,0,0-29.49,11.69Z"/><path class="cls-50" d="M241.21,212.72s-7.79-13.48-31-14.71v10.07s16.17-1.15,27.12,7.76Z"/><path class="cls-31" d="M94.62,130.53s1-4.88,2.66-7.32,4.21-4.81,6.28-5.1a5.44,5.44,0,0,1,3.47.59,4.71,4.71,0,0,0-3.59.39C99.27,121.63,98.81,122.64,94.62,130.53Z"/><path class="cls-31" d="M119.38,125.67s.87-6.48,2.46-8.57c1.43-1.88,2.57-3.3,5.18-4.34a15.3,15.3,0,0,1,4.92-.84s-4.43-1.13-7.24.79a10.56,10.56,0,0,0-4.39,5.52C119.43,120.3,119.38,125.67,119.38,125.67Z"/><path class="cls-31" d="M146.68,109.61s2.46-7.79,5.22-10.25a25.8,25.8,0,0,1,4.93-3.85,15.74,15.74,0,0,1,3.65-1.28,12.16,12.16,0,0,0-9.56,4.63A19.86,19.86,0,0,0,146.68,110"/><path class="cls-31" d="M188.76,106.9a26.61,26.61,0,0,1,1.78-5.37c.88-1.48,1.87-2.86,2.71-3.21a4.53,4.53,0,0,1,1.57-.44c.3,0,.84.05.84.05a5.07,5.07,0,0,0-4.29,1,9.09,9.09,0,0,0-2.56,5.33A26.55,26.55,0,0,0,188.76,106.9Z"/><path class="cls-31" d="M141.8,200.67s1.08,1.28,1.87,1.23,1.09-.59,2.07-2.16,1.83-6.51,1.83-6.51a28.34,28.34,0,0,1-.55,5c-.44,1.48-.93,4.33-2.81,4.33A2.65,2.65,0,0,1,141.8,200.67Z"/><path class="cls-31" d="M72.88,173.4s-.36,1.7,0,2.14,1.56-.59,2.81-2.51a56.27,56.27,0,0,0,2.89-5.4s-2.07,7.25-3.92,8.65-1.92.52-2.22-.07S72.88,173.4,72.88,173.4Z"/><path class="cls-31" d="M186.2,145.68A1.8,1.8,0,0,0,188,146c1-.39,1.48-1.87,1.58-2.95s-.1-5.62-.1-5.62,2.07,5.81.4,8.87S186.2,145.68,186.2,145.68Z"/><path class="cls-31" d="M232.42,169.41a12.12,12.12,0,0,0,1.58,2.2c.39.2.55-.58.54-.9a50.14,50.14,0,0,0-1.56-7s2.3,6.76,2.2,7.74-.54,1.49-1.33.75A8.51,8.51,0,0,1,232.42,169.41Z"/><path class="cls-31" d="M104.4,82.9l13-31.93s-8.68,27.59-14.19,40.21-11.63,23.45-11.63,23.45Z"/><path class="cls-31" d="M132.39,18s8.67-10,11.13-11.63,5.43-3.25,7.89-3.45,4.93-.2,4.93-.2a13,13,0,0,0-6.9-.79c-3.55.69-7.69,3.55-10.25,6.61S132.39,18,132.39,18Z"/><path class="cls-31" d="M128.54,32.44s-.73,4,.15,5.61.45,2.89,3,3,2.88,0,4.36-.6,3.92-3.1,3.92-3.1-6.58,3.1-8.21,2.14S128.1,34.51,128.54,32.44Z"/><path class="cls-31" d="M150.52,32s3.94,1.73,5.92,1.38a10,10,0,0,0,3.25-1.08,12.37,12.37,0,0,0,2-2,7.08,7.08,0,0,1-5,2.07C153.68,32.29,150.52,32,150.52,32Z"/><path class="cls-25" d="M128.54,32.44s-4.73,10.64.3,12.71,13.31-9.76,13.31-9.76,5.32-4.14,7.09-2.66,6.21,4.44,8,2.66,5.92-6.8,5.92-6.8-2.66,5-7.1,4.73-5.91-2.07-8.57-1.77S137.12,42.19,132.09,41,128.54,32.44,128.54,32.44Z"/><path class="cls-31" d="M120.15,74.09s-.59,6.25.34,8.94,1.7,2.89,2.4,2.89a28,28,0,0,0,3.25-.6S124,87.8,121.85,87A4.16,4.16,0,0,1,119,82.41C119.16,80.3,120.15,74.09,120.15,74.09Z"/><path class="cls-25" d="M120.86,71.37s-4.93,11.43-1.58,15.37,6.7-1,7.69-1.77-4.54,3-6.31.49S119.67,74.91,120.86,71.37Z"/><path class="cls-31" d="M129.43,86.84s2.81,4.58,6.65,4.51,8.13-3.84,8.13-3.84-4.21,5.91-8,5.24S129.43,86.84,129.43,86.84Z"/><path class="cls-25" d="M128.54,85.14c.6.3,1.19,5.84,3.33,7.24s2.66,1.7,5.47,1.56,5.91-4.81,6.73-5.84a10.41,10.41,0,0,0,1.33-2.52s-3.77,6.8-9,6.43S128.54,85.14,128.54,85.14Z"/><path class="cls-31" d="M163.63,71.56s3.75,2.07,5.22,2.07a11.09,11.09,0,0,1,5.62,1.09c1.87,1.08,3.25,3.25,5,4.63s2.95,2.56,4,2.27,1.58-1.38,1.38-2.86,1.18-5.22,1.18-5.22L187,71l-.89,5.92v4.33l-.79,2.17-2.86.2-3.15-2.27s-3.45-3.84-3.74-4.24a30,30,0,0,0-3.11-2.1l-4.68-.85Z"/><path class="cls-25" d="M162.35,70.68S165.9,75.11,169,75s5.13,0,6.51,3.35S181,85,183.54,84.57s4.14-4,3.55-6.3.49-3.75.59-4.83S186.3,69,186.3,69s.69,3.06.39,4-1.38,3.45-1.28,4.44,1.18,6.21-1.67,5.52-8.28-7-9.86-7.69-4.34-.89-6.31-1.68A38.51,38.51,0,0,1,162.35,70.68Z"/><path class="cls-31" d="M129.65,31.32S132.6,20,134.79,18.38a25.81,25.81,0,0,1,5.82-2.89s-4.53,3.52-6.24,6.83S129.65,31.32,129.65,31.32Z"/><path class="cls-31" d="M194.78,65.84s5,16.73,7.16,20,6.82,13.3,6.82,13.3S199.5,86.9,198.43,82.28,194.78,65.84,194.78,65.84Z"/></g></g></g></svg>