<svg width="330" height="330" viewBox="0 0 330 330" fill="none" xmlns="http://www.w3.org/2000/svg">
<circle cx="165.5" cy="164.5" r="162.5" fill="white"/>
<path d="M152.577 0C160.825 0 169.072 0 177.32 0C178.247 0.927835 179.485 1.03093 180.619 1.03093C188.66 1.13402 196.495 2.8866 204.227 4.84536C240.928 14.0206 271.031 33.299 294.536 62.9897C311.134 83.9175 321.959 107.526 326.907 133.711C328.041 139.588 328.969 145.567 330 151.546C330 160.515 330 169.381 330 178.351C328.866 178.969 328.969 180.103 328.969 181.031C328.763 188.866 327.113 196.598 325.258 204.124C315.979 240.722 296.804 270.928 267.01 294.433C245.979 311.031 222.474 321.856 196.289 326.804C190.412 327.938 184.433 328.866 178.454 329.897C169.485 329.897 160.619 329.897 151.649 329.897C151.031 328.763 150 328.866 148.969 328.866C141.134 328.66 133.505 327.01 125.876 325.155C89.2783 315.979 59.0722 296.701 35.567 267.01C18.866 245.876 7.93814 222.165 3.09278 195.773C1.95876 189.588 1.03093 183.505 0 177.32C0 169.072 0 160.825 0 152.577C1.03093 151.649 1.03093 150.515 1.03093 149.278C1.13402 141.237 2.98969 133.505 4.84536 125.773C14.0206 88.3505 34.1237 57.732 64.433 34.2268C85.0515 18.2474 108.247 7.73196 134.124 3.19588C140.309 1.95876 146.392 1.03093 152.577 0ZM178.351 236.186C177.835 234.433 179.794 231.546 176.701 231.134C173.299 230.619 174.433 228.351 174.433 226.495C174.433 224.639 177.216 222.165 172.887 221.649C168.969 221.134 167.526 222.68 168.041 226.495C168.144 227.526 167.938 228.557 168.041 229.588C168.351 232.68 164.742 232.474 163.918 234.845C162.68 238.247 167.732 237.217 166.907 239.485C165.567 243.505 166.598 247.629 165.567 251.65C165.155 253.402 164.021 255.567 167.216 255.67C169.381 255.773 172.165 255.773 172.062 252.68C171.856 248.66 173.608 244.948 173.196 241.031C172.68 236.598 174.742 235.67 178.454 236.186C177.629 239.381 177.01 242.577 177.423 245.773C178.041 250.412 182.887 254.227 187.216 253.608C192.474 252.784 193.196 251.753 192.165 246.289C187.01 248.763 187.01 248.763 184.742 246.082C189.381 244.845 192.268 243.299 194.021 240.515C195.67 237.938 196.598 235.258 194.433 232.474C192.371 229.794 189.794 229.072 186.392 229.897C182.577 230.619 180.619 233.505 178.351 236.186ZM279.381 235.052C276.495 234.948 277.01 232.577 277.423 231.34C278.763 227.32 277.835 223.196 278.763 219.175C278.969 218.247 279.381 216.392 278.35 216.804C273.608 218.763 267.938 216.289 263.608 220.206C258.35 225.155 257.938 231.34 259.175 237.629C260 241.959 263.814 243.196 267.938 241.34C269.278 240.722 269.897 239.175 272.268 240.309C276.701 242.474 279.072 240.309 279.278 234.845C279.485 234.845 279.691 234.845 279.897 234.845C279.794 234.742 279.691 234.639 279.691 234.639C279.588 234.845 279.485 234.948 279.381 235.052ZM209.897 162.062C210.515 162.99 210.928 163.402 211.031 163.814C212.268 173.918 220.928 174.227 227.732 168.557C229.897 166.701 231.443 164.227 233.608 161.753C236.907 168.763 239.175 170.103 244.948 168.969C247.629 168.454 250 167.217 252.371 165.773C258.247 162.062 261.237 155.979 265.67 150.619C266.907 153.814 267.732 156.701 269.072 159.381C271.649 164.742 275.464 166.082 280.825 163.505C284.124 161.959 286.701 159.588 288.866 156.598C295.155 147.835 298.866 147.01 308.351 151.959C310.515 153.093 318.969 150.722 319.278 148.66C320 144.948 317.835 142.577 314.536 141.031C310.515 139.175 306.495 138.763 302.165 139.897C296.598 141.34 292.474 144.639 288.351 148.247C285.155 151.031 282.577 157.113 278.041 155.155C273.093 153.093 275.67 146.907 275.258 142.474C275.052 139.897 275.361 137.32 275.155 134.742C274.948 132.887 274.536 130.722 272.474 130.206C270.309 129.588 268.351 130.722 267.216 132.577C265.052 136.186 263.196 140.103 261.031 143.711C258.144 148.454 255.67 153.711 250.309 156.392C248.866 157.113 247.32 158.557 245.567 157.217C243.814 155.876 243.505 154.021 244.124 151.753C247.32 140.103 253.711 130.825 264.536 124.948C265.67 124.33 267.01 123.196 268.35 124.021C271.237 125.67 272.784 123.918 274.433 122.062C275.773 120.412 275.258 118.763 274.124 117.32C272.371 115.155 270 114.124 267.32 114.845C263.505 115.876 260.103 117.732 256.804 120C246.804 127.01 240.619 136.907 235.979 147.835C233.402 153.814 229.381 158.66 224.227 162.474C220.515 165.258 218.454 164.124 218.454 159.588C218.454 156.701 218.557 153.918 219.175 150.928C220.206 145.773 222.062 140.722 221.649 135.361C221.546 134.124 222.371 132.371 220.206 132.062C218.66 131.856 217.526 132.371 216.701 133.711C214.639 137.01 212.68 140.412 211.34 144.021C208.763 150.722 205.876 157.32 200.309 162.268C198.557 163.711 196.804 165.464 194.536 164.639C191.856 163.711 191.856 161.031 191.753 158.557C191.34 150.928 194.33 143.918 195.773 136.598C196.186 134.639 196.701 132.268 194.33 131.237C192.062 130.309 190.722 132.371 189.794 133.814C187.526 137.629 185.67 141.649 183.608 145.567C179.381 153.711 176.186 162.474 169.691 169.278C168.041 171.031 166.289 172.165 163.814 171.134C160.103 169.485 157.835 161.753 160.103 158.454C169.072 145.773 174.742 131.546 178.247 116.598C180 108.763 182.268 100.722 179.691 92.4742C177.526 85.8763 174.124 84.9485 168.969 89.6907C163.711 94.3299 160.309 100.206 157.423 106.495C150.928 120.619 146.289 135.67 148.247 150.928C149.588 161.546 144.33 166.804 138.351 172.784C137.216 173.918 135.567 175.052 133.711 174.021C132.165 173.093 132.371 171.443 132.268 169.897C131.959 165.258 131.649 160.619 131.34 156.082C131.237 153.918 131.753 150.928 129.381 150.206C126.701 149.381 125.258 152.062 123.918 154.021C122.68 155.67 121.753 157.526 120.825 159.278C117.732 164.639 114.536 169.897 109.794 174.021C107.732 175.773 105.67 178.557 102.887 177.01C100.103 175.464 101.856 171.959 101.649 169.381C101.649 169.072 101.856 168.763 101.959 168.454C105.567 158.969 111.443 151.237 119.897 145.464C121.34 144.433 123.196 143.196 125.052 144.021C127.629 145.155 129.588 144.433 130.825 142.371C131.959 140.619 132.062 138.144 130.619 136.598C128.866 134.742 126.598 134.124 123.711 135.052C114.845 137.835 108.351 143.814 102.99 151.031C96.4948 159.794 90.5155 168.969 91.2371 180.722C91.5464 186.186 94.6392 189.072 100 189.072C104.948 188.969 108.66 186.186 112.165 183.196C116.495 179.381 120 174.742 124.33 169.588C124.33 171.753 124.33 172.68 124.33 173.711C124.33 178.041 125.464 181.753 129.588 184.021C133.711 186.186 137.113 184.536 140.412 182.165C144.124 179.588 147.216 176.495 149.794 172.784C151.443 170.309 152.577 170.206 153.918 172.99C155.361 175.979 157.732 178.247 160.722 179.691C165.979 182.062 173.711 178.969 178.247 172.577C180.515 169.278 182.474 165.773 185.155 161.34C185.155 163.918 185.052 165.258 185.155 166.598C185.67 170.412 186.804 173.814 190.619 175.876C194.536 177.938 197.629 175.979 200.515 173.918C203.918 170.515 207.113 166.701 209.897 162.062ZM21.0309 168.454C23.9175 158.557 27.2165 148.969 29.1753 138.763C35.7732 105.155 52.3711 77.2165 79.4845 56.2887C116.082 28.1443 157.113 20 201.959 31.8557C228.557 38.866 250.619 53.299 268.763 73.6083C284.227 90.9278 294.33 111.237 299.794 133.814C300.206 135.67 299.897 137.835 302.99 136.495C304.948 135.67 306.289 135.567 305.567 132.371C297.835 100 281.134 73.299 255.155 52.5773C218.969 23.7113 177.732 13.9175 132.784 24.433C84.8454 35.567 51.3402 64.7423 31.7526 109.794C23.6082 128.557 20.4124 148.144 21.0309 168.454ZM42.9897 150.619C42.0619 149.175 42.5773 148.351 42.8866 147.32C46.2887 135.773 49.6907 124.124 53.8144 112.784C54.3299 111.34 55.3608 109.691 53.9175 108.557C52.6804 107.526 51.2371 108.866 50.2062 109.485C45.3608 112.062 41.8557 115.67 40.2062 121.134C33.1959 144.845 25.8763 168.557 18.866 192.371C18.0412 195.052 16.9072 198.66 21.0309 199.588C24.3299 200.412 27.1134 199.072 28.3505 195.155C31.4433 185.052 35.0515 175.155 38.3505 165.155C39.8969 160.412 41.8557 159.794 45.8763 162.887C47.9381 164.433 49.5876 166.392 50.6186 168.866C52.3711 173.299 54.0206 177.732 55.8763 182.165C57.5258 186.082 58.7629 190.309 62.6804 192.68C70.2062 197.32 83.0928 193.299 86.3918 185.052C87.2165 183.093 87.6289 180.309 85.8763 178.763C84.0206 177.216 82.5773 179.485 81.134 180.412C75.2577 184.433 69.0722 186.598 65.2577 177.01C61.7526 168.247 57.0103 160.515 48.4536 155.258C56.701 149.278 64.8454 143.918 72.0619 137.526C83.1959 127.526 92.1649 115.67 99.3814 102.577C100.206 101.134 100.722 99.5876 99.5876 98.3505C98.5567 97.2165 97.0103 97.0103 95.3608 97.3196C88.866 98.5567 85.1546 101.34 82.7835 108.454C75.9794 128.247 60 140 42.9897 150.619ZM286.082 242.577C281.959 241.753 279.175 242.784 276.701 246.289C264.124 263.711 248.247 277.629 229.072 287.526C201.546 301.649 172.577 306.392 141.856 301.134C114.124 296.495 90.3093 284.433 69.8969 265.258C64.433 260.103 59.1753 254.639 54.8454 248.454C53.0928 245.979 50.7216 245.67 48.5567 247.113C45.6701 248.969 48.7629 250.309 49.6907 251.546C56.701 261.134 64.9484 269.485 74.2268 276.907C108.454 304.433 147.526 314.227 190.619 307.01C224.227 301.34 252.062 284.433 274.536 258.866C278.866 253.918 283.196 248.763 286.082 242.577ZM55.8763 220C55.567 217.01 55.7732 214.536 56.5979 212.062C57.4227 209.175 56.0825 208.144 53.0928 208.247C49.4845 208.351 49.7938 210.722 49.4845 213.196C48.6598 221.959 47.5258 230.825 46.5979 239.588C46.3918 241.134 45.8763 243.608 47.1134 243.814C48.866 244.227 51.134 243.505 52.8866 242.577C54.2268 241.753 53.7113 239.794 53.7113 238.247C53.7113 234.33 54.2268 230.412 56.0825 226.907C56.5979 225.876 57.6289 224.845 58.9691 225.052C60.7216 225.361 60 226.907 60 228.041C59.6907 233.505 59.2783 238.969 58.9691 244.33C58.866 247.526 59.8969 250 63.4021 250.825C66.9072 251.65 70.5155 250.619 71.7526 247.938C72.9897 245.052 69.6907 244.536 67.2165 244.227C65.8763 244.021 65.0515 242.577 65.4639 241.546C67.0103 237.938 65.7732 234.124 66.701 230.412C68.7629 221.237 65.0515 217.629 55.8763 220ZM303.814 152.68C303.505 153.299 303.196 153.505 303.196 153.814C303.093 154.845 302.99 155.876 303.093 156.907C304.021 177.423 300.722 197.217 293.505 216.495C291.753 221.134 291.443 226.598 291.753 231.959C293.196 231.237 293.402 230.309 293.918 229.381C304.639 208.144 309.278 185.67 309.381 161.959C309.381 157.526 308.247 154.536 303.814 152.68ZM256.701 229.072C256.392 227.423 257.216 225.464 256.082 223.711C254.227 220.722 240.515 220.619 238.557 223.608C238.144 224.227 238.144 225.258 238.144 226.082C238.041 231.856 237.113 237.526 236.289 243.299C236.082 244.639 235.258 246.186 238.35 245.773C242.165 245.258 243.608 244.227 243.402 240.206C243.196 237.217 243.711 234.124 244.433 231.134C244.948 228.969 246.495 226.701 248.969 227.113C251.237 227.526 249.897 229.794 249.691 231.443C249.072 235.979 248.557 240.619 248.454 245.155C248.247 251.856 253.505 254.845 259.381 251.546C260.515 250.928 261.856 250.515 261.546 249.072C261.237 247.732 260.722 245.979 258.66 246.186C255.464 246.495 255.876 244.33 255.67 242.268C255.155 237.938 256.907 233.711 256.701 229.072ZM134.639 209.897C129.072 207.732 125.567 210.722 123.196 215.052C120.619 219.897 120.103 225.258 122.783 230.206C125.155 234.639 129.072 232.99 132.577 231.443C132.68 231.443 132.887 231.649 132.99 231.649C138.866 231.753 139.691 230.619 140.103 224.639C140.619 216.495 141.546 208.454 142.371 200.309C142.577 198.66 144.536 196.495 141.237 196.082C138.66 195.773 135.773 196.082 135.979 199.794C136.289 203.196 135.052 206.392 134.639 209.897ZM124.742 250.722C124.639 258.866 128.247 261.546 135.979 259.175C137.526 258.763 138.557 259.381 139.897 259.691C142.371 260.206 144.227 258.66 145.67 257.01C147.216 255.258 146.186 254.021 144.433 252.99C143.299 252.371 144.124 251.134 144.227 250.206C144.639 246.495 144.021 242.68 145.258 238.969C145.67 237.835 146.289 234.639 143.505 235.464C140.103 236.495 136.701 236.392 133.402 237.113C128.454 238.041 124.845 244.124 124.742 250.722ZM229.381 247.423C233.505 247.32 236.392 244.33 234.639 242.165C231.649 238.351 233.093 234.536 233.505 230.619C233.711 228.454 234.845 225.773 233.299 224.33C231.753 222.99 229.175 223.093 227.423 225.258C226.495 226.289 225.67 224.948 224.639 224.845C222.887 224.639 221.34 224.845 219.794 225.979C214.124 230.103 211.856 238.144 214.433 244.639C215.876 248.144 218.557 249.381 221.753 248.351C224.639 247.526 227.113 246.392 229.381 247.423ZM98.9691 226.598C98.9691 226.495 98.9691 227.217 98.9691 227.835C99.2783 234.639 103.608 237.423 109.278 234.227C111.237 233.093 111.959 234.227 113.299 234.742C115.567 235.567 117.423 234.433 118.763 232.99C120 231.649 120 230.103 118.247 228.66C116.701 227.32 117.113 224.948 117.732 223.299C119.175 219.588 117.732 215.773 118.969 212.165C119.278 211.134 118.66 210.103 117.938 210.515C113.814 212.68 108.866 210.412 104.948 213.093C100.515 216.186 98.7629 220.515 98.9691 226.598ZM143.299 218.969C143.196 223.093 143.918 226.392 147.423 228.557C150.928 230.722 153.918 229.485 156.907 227.629C160.515 225.361 163.196 218.041 162.371 213.711C161.546 209.278 159.381 205.876 154.845 205.361C150.515 204.845 147.629 207.835 145.361 211.237C143.814 213.608 142.783 216.392 143.299 218.969ZM76.8041 232.165C81.5464 232.062 85.1546 230.309 87.0103 225.876C88.2474 222.99 88.2474 220 86.1856 217.732C84.433 215.773 81.7526 215.67 79.1753 216.289C72.6804 217.835 68.4536 225.052 70.1031 232.165C71.3402 237.629 74.2268 240.206 78.9691 240.103C83.9175 240 85.4639 237.01 85.3608 232.577C79.3814 235.155 79.3814 235.155 76.8041 232.165ZM201.546 251.443C206.804 251.546 211.34 248.763 212.165 244.639C213.299 239.278 210.206 236.907 205.464 235.67C204.639 235.464 203.196 235.155 203.402 233.814C203.505 232.371 204.742 231.959 205.979 231.959C207.32 231.959 208.866 231.753 210 232.268C212.165 233.093 212.268 231.959 212.268 230.412C212.577 224.227 207.835 226.907 205.361 227.01C200.722 227.01 197.938 230.206 196.907 234.536C195.979 238.763 199.175 240.103 202.371 241.237C203.918 241.753 206.186 242.268 205.773 244.33C205.464 246.082 203.299 246.392 201.649 246.495C200.515 246.598 199.278 246.289 198.144 246.186C196.186 246.082 196.082 247.629 195.979 248.866C195.876 250 195.67 251.443 197.423 251.546C198.763 251.546 200.103 251.443 201.546 251.443ZM281.546 235.773C281.753 236.598 280.515 238.969 283.711 239.175C286.082 239.278 287.732 238.763 288.041 236.186C288.247 234.536 288.454 232.784 288.557 231.134C289.381 222.99 290.103 214.948 290.928 206.804C291.134 205.361 292.474 203.299 290.103 203.402C288.247 203.505 284.845 202.887 284.536 206.289C283.505 215.876 282.577 225.464 281.546 235.773ZM98.1443 207.423C98.0412 207.423 98.0412 207.423 97.9381 207.423C97.9381 206.701 98.0412 205.979 97.9381 205.361C97.732 204.227 99.7938 202.165 96.701 202.062C94.5361 202.062 92.0619 201.546 91.7526 204.948C90.7216 214.433 89.5876 223.814 88.7629 233.299C88.6598 234.845 87.2165 237.835 90.6186 238.041C93.299 238.144 94.8454 236.701 95.1546 233.711C96.0825 224.948 97.1134 216.186 98.1443 207.423ZM42.6804 241.237C45.0515 237.526 44.8454 234.124 43.1959 230.825C41.4433 227.01 39.5876 223.093 37.8351 219.278C34.8454 212.99 33.4021 206.082 30.5155 199.485C26.3918 204.433 26.0825 204.536 26.8041 206.804C30.6186 218.66 35.3608 230.309 42.6804 241.237ZM154.639 234.021C150.515 233.093 149.794 236.082 149.485 239.691C149.175 244.433 148.763 249.175 148.454 253.918C148.351 255.361 145.979 257.732 149.897 257.732C152.577 257.732 154.639 257.526 154.742 254.021C154.845 250.825 155.258 247.629 155.773 244.433C156.186 241.856 156.804 239.588 160.206 239.072C163.402 238.66 162.062 235.567 161.856 234.021C161.649 232.268 159.691 232.887 158.66 233.814C157.423 234.845 156.289 234.124 154.639 234.021ZM207.32 121.443C207.01 124.33 207.32 125.67 208.351 125.979C209.381 126.289 210.412 125.979 211.134 125.155C215.155 120 220.619 117.113 226.804 115.361C228.351 114.948 229.588 113.814 228.557 111.856C227.526 109.794 220.412 107.217 218.144 108.247C212.371 111.134 210.206 117.01 207.32 121.443Z" fill="#5DBAA7"/>
<path d="M279.381 235.052C279.484 234.948 279.588 234.845 279.691 234.742C279.691 234.742 279.897 234.845 279.897 234.948C279.691 234.948 279.484 234.948 279.278 234.948C279.278 234.948 279.381 235.052 279.381 235.052Z" fill="#5DBAA7"/>
<path d="M154.433 152.68C154.948 131.237 160.103 112.887 172.062 95.6701C176.185 106.289 163.711 140.928 154.433 152.68Z" fill="#5DBAA7"/>
<path d="M134.021 219.485C133.608 222.371 133.196 226.082 129.278 226.495C127.01 226.804 126.907 223.299 127.216 222.165C127.835 219.381 126.907 214.948 131.443 214.536C134.433 214.433 133.917 217.217 134.021 219.485Z" fill="#5DBAA7"/>
<path d="M138.144 246.392C137.835 247.113 137.732 247.526 137.526 248.041C136.701 250.412 137.01 253.918 133.608 254.433C131.443 254.742 131.031 252.268 131.031 250.825C131.031 247.423 131.547 243.402 135.052 242.268C137.835 241.237 137.629 244.639 138.144 246.392Z" fill="#5DBAA7"/>
<path d="M220 238.557C220.825 235.67 220.412 232.371 223.093 230.309C223.917 229.691 225.051 229.794 225.773 230.722C228.041 233.711 226.289 236.598 225.567 239.381C225.155 241.031 223.814 242.887 222.165 242.68C220.309 242.577 220.515 240.103 220 238.557Z" fill="#5DBAA7"/>
<path d="M111.34 221.649C111.546 225.155 110.515 227.629 107.938 229.485C107.32 229.897 106.598 229.794 106.186 229.175C104.433 226.495 105.052 223.814 105.979 221.031C106.701 219.072 107.216 216.495 109.588 216.907C112.268 217.32 111.031 220.206 111.34 221.649Z" fill="#5DBAA7"/>
<path d="M271.134 228.247C271.34 231.34 270.309 233.918 267.732 235.773C266.907 236.392 265.876 235.773 265.567 235.052C264.536 232.474 264.536 229.794 265.773 227.216C266.701 225.464 267.01 222.577 269.588 223.299C271.959 223.711 270.928 226.392 271.134 228.247Z" fill="#5DBAA7"/>
<path d="M156.701 215.979C156.495 216.495 156.392 217.01 156.186 217.423C155.155 219.691 155.361 223.196 151.959 223.608C150.206 223.814 149.588 222.165 149.485 220.412C149.382 216.701 149.897 212.577 153.505 211.34C156.392 210.309 156.392 213.918 156.701 215.979Z" fill="#5DBAA7"/>
<path d="M82.4743 223.918C82.165 226.495 80.2062 227.423 78.0413 227.732C76.7011 227.938 76.0825 227.01 76.4949 225.876C77.2165 223.918 77.9382 221.546 80.6186 221.443C82.165 221.34 82.4743 222.577 82.4743 223.918Z" fill="#5DBAA7"/>
<path d="M183.608 240.825C184.639 238.041 185.258 235.052 188.866 234.948C189.794 234.948 190.928 236.083 190.515 237.113C189.175 239.794 187.423 241.959 183.608 240.825Z" fill="#5DBAA7"/>
</svg>
